<?xml version="1.0" standalone="no"?>
<!DOCTYPE svg PUBLIC "-//W3C//DTD SVG 1.1//EN" "http://www.w3.org/Graphics/SVG/1.1/DTD/svg11.dtd" >
<svg xmlns="http://www.w3.org/2000/svg">
<metadata>
Created by FontForge 20120731 at Thu Apr 23 13:09:46 2015
 By Ads
</metadata>
<defs>
<font id="iconfont" horiz-adv-x="1024" >
  <font-face 
    font-family="iconfont"
    font-weight="500"
    font-stretch="normal"
    units-per-em="1024"
    panose-1="2 0 6 3 0 0 0 0 0 0"
    ascent="812"
    descent="-212"
    x-height="792"
    bbox="0 -212 1024 812.059"
    underline-thickness="50"
    underline-position="-100"
    unicode-range="U+0078-E644"
  />
<missing-glyph horiz-adv-x="374" 
d="M34 0v682h272v-682h-272zM68 34h204v614h-204v-614z" />
    <glyph glyph-name=".notdef" horiz-adv-x="374" 
d="M34 0v682h272v-682h-272zM68 34h204v614h-204v-614z" />
    <glyph glyph-name=".null" horiz-adv-x="0" 
 />
    <glyph glyph-name="nonmarkingreturn" horiz-adv-x="341" 
 />
    <glyph glyph-name="x" unicode="x" horiz-adv-x="1001" 
d="M281 543q-27 -1 -53 -1h-83q-18 0 -36.5 -6t-32.5 -18.5t-23 -32t-9 -45.5v-76h912v41q0 16 -0.5 30t-0.5 18q0 13 -5 29t-17 29.5t-31.5 22.5t-49.5 9h-133v-97h-438v97zM955 310v-52q0 -23 0.5 -52t0.5 -58t-10.5 -47.5t-26 -30t-33 -16t-31.5 -4.5q-14 -1 -29.5 -0.5
t-29.5 0.5h-32l-45 128h-439l-44 -128h-29h-34q-20 0 -45 1q-25 0 -41 9.5t-25.5 23t-13.5 29.5t-4 30v167h911zM163 247q-12 0 -21 -8.5t-9 -21.5t9 -21.5t21 -8.5q13 0 22 8.5t9 21.5t-9 21.5t-22 8.5zM316 123q-8 -26 -14 -48q-5 -19 -10.5 -37t-7.5 -25t-3 -15t1 -14.5
t9.5 -10.5t21.5 -4h37h67h81h80h64h36q23 0 34 12t2 38q-5 13 -9.5 30.5t-9.5 34.5q-5 19 -11 39h-368zM336 498v228q0 11 2.5 23t10 21.5t20.5 15.5t34 6h188q31 0 51.5 -14.5t20.5 -52.5v-227h-327z" />
    <glyph glyph-name="uniE600" unicode="&#xe600;" 
d="M858 360q-25 39 -73 40h-1h-2l-167 1q6 15 9.5 31.5t5.5 33.5t2 34q0 34 -7 66h-1q-6 28 -30 46.5t-54 18.5q-18 0 -34 -6.5t-27.5 -18t-18.5 -27t-7 -32.5v-8q0 -19 -5 -37t-13 -34t-19.5 -30t-26 -25.5t-30.5 -20t-34.5 -14t-37.5 -6.5v-1h-99q-2 1 -4 1q-8 0 -15 -4
t-11 -10.5t-4 -14.5v-346q0 -12 9 -20.5t21 -8.5h5h110h4h3h2h415q25 0 47 13q21 13 32 34q3 4 4 9l64 275q2 4 1 9q3 28 -13 52zM214 314h60v-288h-60v288zM811 306l-62 -264q-1 -2 -2 -3.5t-2 -2.5t-2 -2.5t-2.5 -2.5t-2.5 -2q-5 -3 -11 -4q-2 1 -4 1h-390l1 295
q59 14 103.5 54.5t63.5 96.5q5 14 8 26l2 14q1 7 1 12.5t0.5 10t0.5 7.5v2v2q0 11 8 19t20 8t20 -8t8 -19v-1q1 -3 1 -7l2 -16q2 -12 2 -22q0 -6 -0.5 -12t-1 -10.5t-0.5 -8.5t-0.5 -6.5t-1 -4.5t-0.5 -3v-1h-1q-3 -18 -9.5 -35.5t-15.5 -33.5q-3 -7 -3 -13q0 -12 8.5 -20.5
t21.5 -8.5h211v0q5 0 10 -1.5t9 -4.5t7 -7q7 -11 3 -24v0z" />
    <glyph glyph-name="uniE601" unicode="&#xe601;" 
d="M512 653q-72 0 -137.5 -28t-112.5 -75t-75 -112.5t-28 -137.5q0 -96 47 -177.5t128.5 -128.5t177.5 -47t177.5 47t128.5 128.5t47 177.5t-47 177.5t-128.5 128.5t-177.5 47zM658 103q-22 23 -68.5 72t-70.5 74q-44 -45 -149 -150q-4 5 -8 9l-8 8l-8 8q-4 4 -8 8.5t-8 7.5
l-7 8q-4 4 -7 8q92 92 144 143q-121 118 -149 145q38 36 56 52q82 -84 143 -145l30 31q16 15 31 30.5t29 29.5l30 30l29 29q4 -5 9 -10.5t8 -9t8.5 -10t7 -8t8.5 -9.5t8 -8l-34 -34l-36 -36q-16 -16 -36.5 -36t-36.5 -36q66 -65 148 -147q-6 -6 -55 -54z" />
    <glyph glyph-name="uniE602" unicode="&#xe602;" 
d="M512 653q-72 0 -137.5 -28t-112.5 -75t-75 -112.5t-28 -137.5q0 -96 47 -177.5t128.5 -128.5t177.5 -47q72 0 137.5 28t112.5 75t75 112.5t28 137.5q0 32 -5.5 63.5t-16.5 60t-26 55t-35 49t-42.5 42.5t-49 35t-55 26t-60 16.5t-63.5 5.5zM496 178l-46 -46l-159 159
l52 52l107 -107l231 232l52 -52z" />
    <glyph glyph-name="uniE603" unicode="&#xe603;" 
d="M512 653q-96 0 -177.5 -47t-128.5 -128.5t-47 -177.5t47 -177.5t128.5 -128.5t177.5 -47t177.5 47t128.5 128.5t47 177.5t-47 177.5t-128.5 128.5t-177.5 47zM707 215h-262v306h74v-231h188v-75z" />
    <glyph glyph-name="uniE604" unicode="&#xe604;" 
d="M527 102q-91 0 -154.5 64t-63.5 154q0 91 64.5 155t155.5 64q44 0 84.5 -18t69.5 -47.5t46 -70t17 -84.5q-1 -91 -64.5 -154t-154.5 -63zM527 124q82 1 140 58.5t57 138.5q-1 82 -59 139t-140 56q-80 0 -137 -58t-57 -138q0 -81 57.5 -138.5t138.5 -57.5zM807 553
l-25 -25l-28 -28l-1 1l-1 1l-1 1l-1 1l-1 1l-1 1l-1 1l-1 1l-1 1l-1 1l-1 1l-1 1l-1 1l-1 1l-1 1l-1 1l-1 1l-1 1l-1 2q35 35 52 53l7 -7l6 -6zM514 592v75h27v-75h-27zM514 -31v75h27v-75h-27zM300 500l-1 1l-1 1l-1 1l-1 1l-1 1l-1 1l-1 1l-1 1l-1 1l-1 1l-1 1v1l-1 1
l-1 1l-1 1l-1 1l-1 1l-1 1l-1 1l-1 1l-1 1l-1 1l-1 1l-1 1l-1 1l-1 1l-2 2l-1 1l-1 1l-1 1l-1 1l-1 1l-1 1l-1 1l-1 1l-1 1l-1 1l-1 1l-1 1l-1 1l-1 1l-1 1l-1 1l-1 1l-1 1l-1 1l-1 1l-1 1l-1 1l-1 1l-1 1l-2 1l20 20q11 -12 23.5 -24t29.5 -29l-1 -1l-1 -1l-1 -1l-1 -1
l-1 -1l-1 -1l-1 -1l-1 -1l-1 -1l-1 -1l-1 -1l-1 -1l-1 -1l-1 -1l-1 -1l-1 -1l-1 -1l-1 -1zM787 54l-1 1l-1 1l-1 1v1l-1 1l-1 1l-1 1l-1 1l-1 1l-1 1l-1 1l-1 1l-1 1l-1 1l-1 1l-1 1l-1 1l-1 1l-1 1l-1 1l-1 1l-1 1l-1 1l-1 1l-1 1l-1 1l-2 2l-1 1l-1 1l-1 1l-1 1l-1 1l-1 1
l-1 1l-1 1l-1 1l-1 1l-1 1l-1 1l-1 1l-1 1l-1 1l-1 1l-1 1l-1 1l-1 1l-1 1l-1 1l-1 1l-1 1l-1 1l-1 1q1 1 2.5 3t2.5 4l4 3l4 3q1 2 3 3.5t3 2.5q12 -11 24 -23l29 -29zM325 107l-53 -53q-15 15 -19 20l16 16l20 20l16 16zM251 311h-23h-28h-23v27h25h24h25v-27zM879 311
h-23h-28h-24v27h19h18h20h18v-27z" />
    <glyph glyph-name="uniE605" unicode="&#xe605;" 
d="M525 117q23 81 85 109q89 40 179 8q72 -26 93 -96q1 -1 4 -21h-124h-112h-125zM706 465q19 0 36.5 -7.5t30 -20t20 -30t7.5 -36.5q1 -25 -11.5 -46.5t-34 -34.5t-47.5 -13q-39 0 -66.5 27t-27.5 66q0 26 12 47.5t33.5 34.5t47.5 13zM457 452v-31h-292v31h292zM164 330v31
h293v-31h-293zM164 233v32h235v-32h-235zM164 142v32h190v-32h-190zM233 8h62v-15h-62v15zM437 8h61v-15h-61v15zM437 607h61v-15h-61v15zM135 607h61v-15h-61v15zM334 607h62v-15h-62v15zM233 607h62v-15h-62v15zM334 8h62v-15h-62v15zM135 8h61v-15h-61v15zM55 432h15v-62
h-15v62zM55 534h15v-61h-15v61zM55 329h15v-61h-15v61zM55 125h15v-62h-15v62zM55 227h15v-61h-15v61zM835 607h61v-15h-61v15zM835 8h61v-15h-61v15zM539 8h62v-15h-62v15zM744 8h61v-15h-61v15zM744 607h61v-15h-61v15zM539 607h62v-15h-62v15zM641 8h62v-15h-62v15z
M641 607h62v-15h-62v15zM954 534h15v-61h-15v61zM954 432h15v-62h-15v62zM954 329h15v-61h-15v61zM954 227h15v-61h-15v61zM954 125h15v-62h-15v62zM102 592q-11 0 -20 -6.5t-12 -16.5l-15 7q5 13 17 22t27 9h5v-15h-2zM922 592q11 0 20 -6.5t12 -16.5l15 7q-5 13 -17 22
t-27 9h-5v-15h2zM922 8q24 0 32 23l15 -7q-3 -9 -9.5 -16t-15.5 -11t-19 -4h-5v15h2zM105 8q-25 0 -33 23l-14 -7q4 -13 16 -22t27 -9h5v15h-1z" />
    <glyph glyph-name="uniE606" unicode="&#xe606;" 
d="M233 8h62v-15h-62v15zM437 8h61v-15h-61v15zM437 607h61v-15h-61v15zM135 607h61v-15h-61v15zM334 607h62v-15h-62v15zM233 607h62v-15h-62v15zM334 8h62v-15h-62v15zM135 8h61v-15h-61v15zM55 432h15v-62h-15v62zM55 534h15v-61h-15v61zM55 329h15v-61h-15v61zM55 125
h15v-62h-15v62zM55 227h15v-61h-15v61zM835 607h61v-15h-61v15zM835 8h61v-15h-61v15zM539 8h62v-15h-62v15zM744 8h61v-15h-61v15zM744 607h61v-15h-61v15zM539 607h62v-15h-62v15zM641 8h62v-15h-62v15zM641 607h62v-15h-62v15zM954 534h15v-61h-15v61zM954 432h15v-62
h-15v62zM954 329h15v-61h-15v61zM954 227h15v-61h-15v61zM954 125h15v-62h-15v62zM102 592h2v15h-5q-15 0 -27 -9t-17 -22l15 -7q8 23 32 23zM954 569l15 7q-5 13 -17 22t-27 9h-5v-15h2q24 0 32 -23zM922 8h-2v-15h5q8 0 15 2.5t12.5 6.5t10 10t6.5 12l-15 7q-2 -7 -7 -12
t-11.5 -8t-13.5 -3zM72 31l-14 -7q4 -13 16 -22t27 -9h5v15h-1q-12 0 -20.5 6.5t-12.5 16.5zM873 261v-41h-483v41h483zM463 311v42h342v-42h-342zM321 308q0 23 -11.5 42.5t-31 31t-43.5 11.5q-35 0 -60 -25t-25 -60t24 -61l-3 -21l24 -18l8 10q1 -1 3 -2.5t9 -4.5t14 -4
t17 1.5t19 9.5l14 -11l18 15l-2 24q12 12 19 28t7 34zM266 339l2 7l2 -7h6l-5 -4l2 -6l-5 4l-5 -4l2 6l-6 4h7zM253 312l-6 4l-5 -4l2 6l-5 4h6l2 6l2 -6h7l-5 -4zM233 354l3 12l4 -12l12 1l-9 -8l3 -11l-9 7l-10 -7l3 11l-10 7h13zM221 322l2 6l2 -6h6l-5 -4l2 -6l-5 4
l-5 -4l2 6l-6 4h7zM201 339l2 7l2 -7h7l-5 -4l2 -6l-6 4l-5 -4l2 6l-5 4h6zM279 262h-85l-9 8v6h24l6 19l40 -1l8 -18h23l1 -7z" />
    <glyph glyph-name="uniE607" unicode="&#xe607;" 
d="M504.5 247q102.5 0 175 71.5t72.5 173.5q0 40 -12.5 77t-35 67t-53 53t-68.5 35t-78 12q-103 0 -175.5 -71.5t-72.5 -173t72.5 -173t175 -71.5zM511.5 224q-71.5 0 -148.5 -27.5t-140 -73t-104 -110t-41 -132.5v-42h866v42q0 68 -40.5 132.5t-104 110t-140 73t-148 27.5z
" />
    <glyph glyph-name="uniE608" unicode="&#xe608;" 
d="M512 -141q-5 0 -9 2t-7 6l-251 329q0 1 -1 2l-1 1q-2 2 -3 4l-1 1q-1 1 -2 3q-62 88 -62 196q0 67 25.5 129t73.5 110q98 98 238 98q45 0 88 -11t81 -33.5t70 -53.5q99 -99 99 -239q0 -108 -63 -196q0 -1 -1 -1l-1 -2l-1 -1q-3 -4 -5 -7l-250 -329q-7 -8 -17 -8zM278 221
l234 -308l235 308v1l4 5l1 1l1 1q18 25 30.5 53.5t19 58.5t6.5 62q0 39 -10 76.5t-29.5 71.5t-47.5 62q-87 86 -210 86t-209.5 -86.5t-86.5 -209.5q0 -96 56 -174v-1h1v-1l3 -3zM512.5 272q-54.5 0 -93.5 38.5t-39 93t39 93.5t93.5 39t93 -39t38.5 -93.5t-38.5 -93
t-93 -38.5zM512.5 495q-37.5 0 -64.5 -27t-27 -64.5t27 -64t64 -26.5q25 0 46 12t33 33t12 46q0 37 -26.5 64t-64 27z" />
    <glyph glyph-name="uniE609" unicode="&#xe609;" 
d="M949 -97l-270 272q80 96 80 222q0 95 -46.5 175t-126.5 126.5t-174 46.5q-57 0 -110 -17.5t-95.5 -50t-74.5 -75t-50 -95.5t-18 -110q0 -94 46.5 -174t127 -126.5t174.5 -46.5q130 0 228 85l269 -271q9 -9 20.5 -9t19.5 9q5 5 7 12t0 14.5t-7 12.5zM412 105
q-121 0 -206.5 85.5t-85.5 206.5t85.5 206.5t206.5 85.5t206.5 -85.5t85.5 -206.5q0 -123 -88 -209q-86 -83 -204 -83z" />
    <glyph glyph-name="uniE60A" unicode="&#xe60a;" 
d="M888 590h-752q-20 0 -36.5 -9.5t-26 -26t-9.5 -36.5v-460q0 -30 21 -51t51 -21h752q15 0 28 5.5t22.5 15.5t15.5 23t6 28v460q0 30 -21 51t-51 21zM934 63q0 -14 -7 -26t-18.5 -18.5t-25.5 -6.5h-742q-21 0 -36 15t-15 36v450q0 14 7 26t18.5 18.5t25.5 6.5h742
q14 0 25.5 -6.5t18.5 -18.5t7 -26v-450zM358 118h-157q-12 0 -15.5 4.5t0.5 16.5q26 90 103 130q10 6 17.5 4.5t13.5 -10.5l6 -6q4 -4 4 -5q10 -11 13.5 -15.5t9.5 -8.5t8 -4t8 4t10 8.5t13 15.5q18 21 25.5 22t31.5 -14q63 -40 87 -122q3 -11 0 -15.5t-15 -4.5h-163z
M362 283q-25 0 -45 11t-31.5 31t-11.5 45q0 36 24.5 61.5t60.5 26.5q37 1 63.5 -25.5t26.5 -63.5q0 -35 -25.5 -60.5t-61.5 -25.5zM824 316h-42h-111h-1q-4 0 -8 -2t-6 -5.5t-2 -8t2 -8.5t6 -6t8 -2h1h111h20h22q7 0 11.5 4.5t4.5 11.5t-4.5 11.5t-11.5 4.5zM824 398h-42
h-176h-1q-7 0 -12 -4.5t-5 -11.5t5 -11.5t12 -4.5h1h176h20h22q7 0 11.5 4.5t4.5 11.5q0 4 -2 8t-6 6t-8 2z" />
    <glyph glyph-name="uniE60B" unicode="&#xe60b;" 
d="M888 590h-752q-20 0 -36.5 -9.5t-26 -26t-9.5 -36.5v-460q0 -30 21 -51t51 -21h752q15 0 28 5.5t22.5 15.5t15.5 23t6 28v460q0 30 -21 51t-51 21zM141 564h742q21 0 36 -15t15 -36v-55h-844v55q0 14 7 26t18.5 18.5t25.5 6.5zM883 12h-742q-21 0 -36 15t-15 36v237h844
v-237q0 -14 -7 -26t-18.5 -18.5t-25.5 -6.5zM849 123h-216h-187h-246h-1q-4 0 -8.5 -2t-7.5 -5t-4.5 -7t-1.5 -9q0 -2 0.5 -4.5t1.5 -5t2.5 -4.5t3.5 -3.5t4.5 -2.5t5 -1.5t4.5 -0.5h1h246h403q5 0 9 1.5t7 4.5t5 7.5t2 9t-2 8.5t-5 7t-7 5t-9 2zM447 232h-1v0h-246h-1
q-3 0 -6.5 -1t-6.5 -3t-5 -5t-3 -6t-1 -7q0 -9 6.5 -16t15.5 -7h1h246h1q9 0 15.5 7t6.5 16t-6.5 15.5t-15.5 6.5z" />
    <glyph glyph-name="uniE60C" unicode="&#xe60c;" 
d="M512 592q-34 0 -67 -8t-61.5 -22t-54 -34t-45.5 -45.5t-34 -54t-22 -61.5t-8 -67q0 -40 10.5 -77.5t29.5 -69.5t46 -59t59 -46t69.5 -29.5t77.5 -10.5q121 0 206.5 85.5t85.5 206.5t-85.5 206.5t-206.5 85.5zM510 27q-112 0 -191 81t-79 194q0 112 80.5 192t192.5 79
q113 -1 192 -81t79 -193q0 -74 -37 -137t-100 -99t-137 -36zM529 464q0 2 -1 4.5t-3.5 3.5t-4.5 1q-10 0 -10 -9v-161h-121h23h-12h-11q-10 0 -10 -9q0 -4 3 -7t7 -3h11h12h-23h131q9 0 9 10v0v140v30z" />
    <glyph glyph-name="uniE60D" unicode="&#xe60d;" 
d="M382 513h479q14 0 26.5 5t21.5 14t14 21.5t5 26t-5 26t-14 21.5t-21.5 14.5t-26.5 5.5h-479q-11 0 -21.5 -3.5t-18.5 -10t-14.5 -14.5t-9.5 -18t-3 -21q0 -28 19.5 -47.5t47.5 -19.5zM187 647h-8q-18 0 -33.5 -9t-24.5 -24.5t-9 -33.5q0 -28 19.5 -47.5t47.5 -19.5h8
q18 0 33.5 9t24.5 24t9 33.5t-9 34t-24.5 24.5t-33.5 9zM861 379h-479q-18 0 -33.5 -9t-24.5 -24.5t-9 -33.5q0 -28 19.5 -47.5t47.5 -19.5h479q28 0 47.5 19.5t19.5 47.5q0 18 -9 33.5t-24.5 24.5t-33.5 9zM187 379h-8q-28 0 -47.5 -20t-19.5 -47.5t19.5 -47t47.5 -19.5h8
q18 0 33.5 9t24.5 24t9 34q0 27 -19.5 47t-47.5 20zM861 111h-479q-18 0 -33.5 -9t-24.5 -24.5t-9 -33.5q0 -28 19.5 -47.5t47.5 -19.5h479q28 0 47.5 19.5t19.5 47t-19.5 47.5t-47.5 20zM187 111h-8q-28 0 -47.5 -20t-19.5 -47q0 -18 9 -33.5t24.5 -24.5t33.5 -9h8
q11 0 21 3t18.5 9.5t14.5 14.5t9.5 18.5t3.5 21.5q0 27 -19.5 47t-47.5 20z" />
    <glyph glyph-name="uniE60E" unicode="&#xe60e;" 
d="M514 436q83 -4 153 -34.5t126 -89.5q18 -20 6 -32q-13 -14 -33 7q-122 124 -294 108q-40 -4 -77 -17t-69 -33.5t-62 -48.5q-1 -2 -3 -3.5t-3.5 -3.5t-3.5 -3q-15 -16 -28 -2q-1 1 -2 3l-2 4q-1 2 -1 3.5t1 3.5v4q1 2 2 3.5t2 3.5t3 3q17 19 36.5 35t41.5 29q90 56 207 60
zM512 256q108 -4 172 -79q15 -18 2 -30q-14 -13 -30 5q-50 55 -120 64q-88 12 -160 -53l-6 -6q-3 -2 -4 -4q-15 -15 -28 -1q-11 12 2 27q54 60 129 73q26 4 43 4zM512 40zM470 40.5q0 17.5 12.5 29.5t29.5 12t29.5 -12t12.5 -29.5t-12.5 -30t-29.5 -12.5t-29.5 12.5
t-12.5 30zM902 430q-70 78 -171.5 125t-218.5 47q-119 0 -218.5 -44.5t-173.5 -125.5q-1 -1 -2 -3t-1.5 -4.5t-0.5 -4.5q0 -8 5.5 -13.5t12.5 -5.5q4 0 8.5 2t7.5 6q71 73 164 115.5t198 41.5q101 -1 194.5 -44t167.5 -116q8 -9 16 -9t13 5.5t5 12.5q0 6 -3 11z" />
    <glyph glyph-name="uniE60F" unicode="&#xe60f;" 
d="M512 607q-127 0 -217 -90t-90 -217q0 -50 15.5 -97t44 -84.5t66 -66t84.5 -44t97 -15.5q127 0 217 90t90 217q0 83 -41 154t-112 112t-154 41zM512 34q-72 0 -133.5 35.5t-97 97t-35.5 133.5q0 54 21 103.5t56.5 85t85 56.5t103.5 21q110 0 188 -78t78 -188
q0 -115 -83 -194q-78 -72 -183 -72zM489 215v28q1 19 14.5 38t29.5 31.5t29.5 28t13.5 29.5q0 13 -9 24t-23 16.5t-30 5.5q-24 0 -46.5 -18.5t-22.5 -50.5h-41q0 34 16 59t39.5 36t51.5 11q52 1 80.5 -22.5t28.5 -68.5q0 -17 -9 -31.5t-21.5 -24.5t-25.5 -20t-22 -24t-9 -30
v-17h-44zM490 147v42h44v-42h-44z" />
    <glyph glyph-name="uniE610" unicode="&#xe610;" 
d="M205 300q0 -127 90 -217t217 -90t217 90t90 217q0 62 -24.5 119t-65.5 98t-98 65.5t-119 24.5q-127 0 -217 -90t-90 -217zM246 300q0 110 78 188t188 78t188 -78t78 -188q0 -72 -35.5 -133.5t-97 -97t-133.5 -35.5q-110 0 -188 78t-78 188zM538 275q66 66 48 82
q-10 9 -15 15.5t-6.5 15.5t4 20t17.5 26q39 49 79 -8q8 -16 1.5 -45t-30 -68.5t-55.5 -73.5q-56 -59 -114.5 -82.5t-80.5 -6.5q-9 6 -14.5 11t-11.5 14t-6.5 16.5t5 18t18.5 21.5q13 10 24 14.5t17 6.5t15 -4t11 -8l12 -12q17 -17 82 47z" />
    <glyph glyph-name="uniE611" unicode="&#xe611;" 
d="M512 607q-127 0 -217 -90t-90 -217t90 -217t217 -90q42 0 81.5 11t73.5 31t62 48t48 62t31 73.5t11 81.5q0 83 -41 154t-112 112t-154 41zM512 34q-110 0 -188 78t-78 188q0 72 35.5 133.5t97 97t133.5 35.5q110 0 188 -78t78 -188q0 -115 -83 -194q-78 -72 -183 -72z
M450 306l-13 11q54 59 97 59q11 0 15 -3q2 -2 3 -4.5t1 -6.5q0 -11 -19 -74q-32 -108 -32 -128q0 -10 6 -10q12 0 50 37l11 -12q-39 -37 -58.5 -48.5t-33.5 -11.5q-11 0 -16 8t-5 17q0 34 45 183q3 8 3 12q0 7 -8 7q-10 0 -46 -36zM536 464q0 13 9.5 22t21.5 9q8 0 14 -7
t6 -16q0 -13 -9 -22q-4 -5 -9.5 -7.5t-11.5 -2.5q-9 0 -15 6q-1 2 -2 3.5t-1.5 3t-0.5 3.5l-2 4v4z" />
    <glyph glyph-name="uniE612" unicode="&#xe612;" 
d="M756 553h-203v8q0 17 -12 29t-29 12q-8 0 -15.5 -3.5t-13 -9t-9 -13t-3.5 -15.5v-8h-203q-9 0 -17.5 -4.5t-13 -13t-4.5 -18.5q0 -14 10.5 -24.5t24.5 -10.5h488q7 0 13.5 2.5t11.5 7.5t7.5 11.5t2.5 13.5q0 15 -10.5 25.5t-24.5 10.5zM272 444l20 -450h440l20 450h-480z
M415 86q0 -16 -10.5 -26.5t-25.5 -10.5t-25.5 10.5t-10.5 26.5v261q0 16 10.5 26.5t25.5 10.5t25.5 -10.5t10.5 -26.5v-261zM548 86q0 -16 -10.5 -26.5t-25.5 -10.5t-25.5 10.5t-10.5 26.5v261q0 6 2 12t5 10.5t7.5 7.5t10 5t11.5 2q15 0 25.5 -10.5t10.5 -26.5v-261z
M681 86q0 -16 -10.5 -26.5t-25.5 -10.5t-25.5 10.5t-10.5 26.5v261q0 16 10.5 26.5t25.5 10.5t25.5 -10.5t10.5 -26.5v-261z" />
    <glyph glyph-name="uniE613" unicode="&#xe613;" 
d="M225 147h37v-58h-39q-23 0 -39.5 16.5t-16.5 40.5v443q0 23 16.5 39.5t39.5 16.5h462q24 0 40.5 -16.5t16.5 -39.5v-39h-58v37h-459v-440zM857 473v-462q0 -23 -16.5 -39.5t-39.5 -16.5h-462q-12 0 -22 4.5t-18 12t-12.5 18t-4.5 21.5v462q0 15 8 28t21 20.5t28 7.5h462
q11 0 21.5 -4.5t18 -12t12 -18t4.5 -21.5zM799 471h-459v-458h459v458zM396 336h120q5 0 5 5v49q0 5 -5 5h-120q-4 -1 -5 -5v-49q0 -5 5 -5zM396 212h272q4 2 5 5v49v1q-2 3 -5 5h-272q-2 0 -3.5 -1.5t-1.5 -3.5v-50q0 -2 1.5 -3.5t3.5 -1.5zM396 89h348q2 0 3.5 1t1.5 3v49
v1q0 2 -1.5 3.5t-3.5 1.5h-348q-2 0 -3.5 -1.5t-1.5 -3.5v-50q0 -4 5 -4z" />
    <glyph glyph-name="uniE614" unicode="&#xe614;" 
d="M283 60h50v-12h-50v12zM450 60h50v-12h-50v12zM450 551h50v-13h-50v13zM203 551h50v-13h-50v13zM366 551h50v-13h-50v13zM283 551h50v-13h-50v13zM366 60h50v-12h-50v12zM203 60h50v-12h-50v12zM137 407h13v-50h-13v50zM137 491h13v-50h-13v50zM137 323h13v-50h-13v50z
M137 156h13v-51h-13v51zM137 240h13v-51h-13v51zM776 551h50v-13h-50v13zM776 60h50v-12h-50v12zM534 60h50v-12h-50v12zM701 60h51v-12h-51v12zM701 551h51v-13h-51v13zM534 551h50v-13h-50v13zM618 60h50v-12h-50v12zM618 551h50v-13h-50v13zM873 491h13v-50h-13v50z
M873 407h13v-50h-13v50zM873 323h13v-50h-13v50zM873 240h13v-51h-13v51zM873 156h13v-51h-13v51zM176 539q-9 0 -16.5 -5.5t-10.5 -13.5l-12 5q4 12 14 19t22 7h4v-12h-1zM847 539q9 0 16.5 -5.5t10.5 -13.5l12 5q-4 12 -14 19t-22 7h-4v-12h1zM847 60q20 0 27 19l12 -5
q-4 -12 -14 -19t-22 -7h-4v12h1zM178 60q-20 0 -27 19l-12 -5q4 -12 14 -19t22 -7h4v12h-1zM178 60zM515 165q5 1 14 2q16 1 35 3q13 1 24 2q13 1 26 1q18 0 29 -1l7 -1q2 0 3 -0.5t2.5 -1t2.5 -0.5l1 -1l1 -1q1 -1 1 -2v-1q1 -2 0 -5q-1 -1 -1.5 -2.5t-1 -2.5t-1.5 -2
l-10 -11l-11 -10q-9 -7 -23 -17q-2 -1 -3 -2t-2.5 -1.5t-3 -1.5t-2.5 -2l-1 -1h-1l-1 -1l-1 -1h-1v-1v-1h1l1 -2q1 -1 2 -1q2 -1 6 -2t11 -2q9 -1 19 -1h5h4h7h7h5h1q-1 -1 -3 -1t-4.5 -0.5t-5.5 -0.5l-16 -2h-9h-6h-5q-7 1 -12 2l-6 2q-4 1 -6 4q-1 0 -1 0.5t-1 0.5v1v1v1
q-1 3 1 5l2 2l1 1q1 0 3 2q1 1 3 2t3 2t2.5 2t2.5 2q13 8 23 16q7 5 11 9q7 6 10 10q3 3 3 6l1 1v1h-1v1v0q0 1 -1 1t-2.5 1t-3.5 1q-3 1 -7 1q-6 1 -12 1h-16h-9h-9h-8q-11 0 -24 -1q-14 -1 -35 -2q-4 -1 -7 -1h-5h-2zM659 92l65 19l-46 46zM850 253l-29 29q-9 9 -18 0
l-14 -14l46 -46l14 13q9 10 1 18zM283 288l-9 1h-5q-2 0 -4 1l1 1l1 1l1 1l1 2l1 1l1 1q3 3 8 7q2 3 3 4l3 3l3 3q2 1 2 2l2 1q2 3 0 8q-5 0 -9 -1q-2 0 -4.5 -0.5t-4.5 -0.5q-6 -3 -7.5 -3.5t-3.5 -1.5t-5 -2t-5 -2t-3 -1l-8 -1q-10 -1 -5 -6q2 -2 6 -3h4q2 0 3 1q3 1 8 2
q2 1 4 1h2q-4 -6 -7.5 -10.5t-7 -8t-6.5 -5.5q0 -1 -1 -2l-2 -2l-1 -1l-1 -2q0 -1 -1 -2v-2q1 -2 3 -3.5t4.5 -1.5t5 0.5t5 2.5t5 3.5t5.5 2.5q6 3 9 3q6 -1 4 -10q-1 -3 -2 -5.5t-1.5 -4.5t-1.5 -4t-1.5 -4t-1 -3.5t-1 -2.5t-0.5 -2q-2 0 -7 5q-4 3 -6 4q-3 0 -3.5 -3.5
t1.5 -5.5l4 -8q2 -4 6 -7.5t8 -3.5l2 1l1 1l2 1l1 1v2l1 2l1 3q9 27 10 34q2 10 1 13q-3 4 -8 6zM259 351q1 -1 7 -3l6 -3q0 -1 -1 -3t-3 -3q-5 -4 -5 -6q0 -3 3 -3.5t5 0.5l8 4q1 1 3 2l2 2q2 1 3 3q2 2 3 4t1 3q-1 4 -3.5 5.5t-5.5 2t-7 0t-6 -0.5l-1 1h-3l-3 1h-2
q-1 0 -2 -1q-2 -1 -1 -2t1 -1.5t1 -1.5zM401 264q-1 0 -2 1t-2 1l-7 4l-39 23q-6 3 -9 6t-3 5q-1 0 -1 1l1 1l1 1l1 1l2 1q1 0 2 1h1h1q0 1 1 1q7 4 14 5q2 1 3 1h1l1 2q1 0 0.5 2t-1.5 3t-1 2h-9q-5 0 -10 3v1q2 1 5 3q10 8 10 16q1 6 -10 6q-2 0 -5 -2l2 -5q1 -5 -3.5 -8
t-13.5 -3q1 4 1 13q-1 5 -1.5 8t-1.5 4q-2 2 -3.5 3t-3.5 1.5t-4 0t-3 -1.5l1 -6q3 -5 3 -6q1 -4 2 -9t1.5 -11t0.5 -12v-4v-4v-2q0 -1 -1 -2l-2 -3q-2 -1 -4.5 -2t-6.5 -3q-10 -4 -11 -4l-2 3q-3 2 -4 -3q-1 -2 -1 -4t1 -3t2 -1.5t1.5 -1t1.5 -0.5h2h1q1 0 2 0.5t2 0.5
t1.5 0.5t1.5 0.5t2 1l3 1l2 2q2 0 3 1h1h1q2 -1 2.5 -4t-0.5 -9v-11v-15v-6l-1 -1v-3q-2 -3 -3 -6v-4v-5q1 -3 1 -4q5 -6 13 2q16 18 20 32q1 2 1.5 3.5t0.5 2.5l2 4l2 3q1 0 1.5 0.5t1.5 0.5t1.5 -0.5t1.5 -0.5q2 -1 4.5 -3t3.5 -2q3 -2 7 -4q1 0 3.5 -1t5.5 -2q5 -2 6 -3
q1 0 2.5 -0.5t2.5 -0.5l3 -1h2h1l1 1v4q-1 1 -4 3zM332 320q0 3 1 5q4 4 8.5 1.5t5.5 -7.5l-4 -2q-4 -1 -6 -2h-5q0 1 -0.5 2t0.5 3zM351 275l-1 -1l-1 -2q-1 -2 -7 -8q-1 -1 -2.5 -3.5t-2.5 -3.5t-3 -2l-3 -1h-1l-1 1v3v3q0 10 2 24v3v4h1q0 1 1 1l3 -1h2l1 -2l2 -2l6 -3
q2 -1 3 -2.5t1 -2.5v-5zM585 255q-5 2 -11 4l-9 3q-15 7 -42 28l-6 4q-5 3 -8 5t-5 5q1 0 4 2q2 1 3.5 1.5t2.5 0.5q1 1 4 1h6h11q1 0 3 0.5t3.5 0.5t2.5 1l2 3v2v2q-1 3 -3 5q-3 1 -7 2q-2 0 -3.5 0.5t-2.5 0.5q-4 2 -9 8t-5 7l-1 1q-1 0 -2 1l-3 1q-1 1 -1 2v3v4q1 8 1 9
q-1 1 -1.5 2.5t-1.5 3.5q-2 2 -5 2t-5 -3q-1 -1 -1.5 -2.5t-0.5 -3.5v-7v-7v-6q-1 -22 -4 -27q-5 -4 -13 -7q-9 -3 -15 -1q-1 0 -4 1t-3 2v-10q5 -13 28 -3q1 -3 1 -6v-8q0 -3 -1 -6.5t-2 -7.5q-2 -7 -6 -12.5t-9 -8.5q-3 -1 -7 -2t-8 1l-2 2q-2 2 -3 2q-3 3 -5 -2v-4
q0 -12 17 -10q7 1 12.5 3.5t9.5 5.5q6 5 9 13t5 19q1 6 2 9.5t2 5.5q7 -3 16 -10q4 -4 8 -7.5t7 -6.5q7 -5 16 -11.5t18 -8.5l3 -1q3 -1 4 -1h4q1 0 2 -0.5t2 -0.5h3q2 0 3.5 1t2.5 1h1l1 1q1 1 1 1.5t1 0.5v1l-1 1q-1 3 -6 5zM505 324v3v2q0 1 0.5 2t1 1.5t0.5 1.5t2 5
q2 -2 3.5 -4.5t3 -4l2.5 -2.5v-4l1 -1q0 -2 -1.5 -3t-4.5 -1q-6 -2 -7 0q-1 0 -1.5 1.5t0.5 3.5zM786 264q-1 4 -2 6q0 1 -1 2q0 1 -0.5 1.5t-1.5 0.5q-2 1 -2 -1q-1 -1 -1 -2t1 -2q0 -4 1 -10l-10 -10l-2 3l-2 2h-1q-16 12 -30 28q0 1 -3 3l-1 2q-2 1 -2.5 2t-1.5 1.5
t-1 1.5q-1 2 -1 4q1 1 7 3q4 2 12 3l10 2q0 5 -2.5 7t-7.5 1t-9 -3q-5 -1 -9.5 -2.5t-7.5 -0.5q-3 2 -5.5 6.5t-0.5 6.5q4 2 11 1l2 2q1 1 3 1.5t3 1.5t1 2q3 4 -2 6h-6q-3 0 -7 -1q0 4 4 7l7 4l2 1l4 5q5 5 5 9q-1 3 -4 4l-7 2h-7q-3 0 -8 -1.5t-11 -3.5q-13 -4 -15 -4
q-2 -1 -4 -1h-5h-8l-4 -2q-2 -1 -3 -2q-3 -2 0 -6t16 -2q5 1 19 7t23 6q0 -2 -1 -3l-3 -3l-1 -1l-1 -2q-1 -1 -3 -2l-2 -2q-2 -1 -8.5 -6.5t-9.5 -8t-8 -6.5q-6 -3 -11 -4q-1 5 -3 7q-4 3 -7 3q-4 1 -5.5 1t-2.5 -2v-3q1 0 1.5 -1t1.5 -2l2 -2q2 -3 2 -12q0 -5 -0.5 -11.5
t-0.5 -10.5q-1 -4 -2 -12l-1 -11q0 -1 -1 -5t-1.5 -6.5t-0.5 -6.5q0 -2 0.5 -3.5t0.5 -2.5q1 -4 3.5 -5t5 -0.5t5 2.5t4.5 4t8 7q3 3 5.5 5t3.5 3.5t2 3.5t3 5l2 4v4q1 2 1 4l-4 -2l-3 -3l-4 -4q-2 -3 -3 -4q-8 -10 -18 -14v6q-1 4 -1 7t0.5 7t2 7t4 4.5t9 3t9.5 2.5
q1 1 4 3l6 3q1 1 2.5 1.5t2.5 0.5l6 1l7 -5q3 -3 7.5 -9t5.5 -7q3 -4 7 -8q2 -2 4 -3.5t3 -3.5q3 -2 9 -7.5t7 -6.5l1 -1l-80 -81l46 -46l102 102l-44 43zM707 300q0 -1 -2 -2t-6 -2l-6 -3q-2 -1 -3.5 -1.5t-2.5 -1t-3 -0.5l-7 -2q-3 1 -5 3q-2 3 -1 7q1 2 1 3.5t1 2.5
q2 4 9 7q2 1 4.5 1.5t4.5 1t4 1.5q4 0 9 -6q3 -3 3.5 -5.5t-0.5 -3.5z" />
    <glyph glyph-name="uniE615" unicode="&#xe615;" 
d="M512 498q-42 0 -80 -16.5t-65.5 -44t-44 -65.5t-16.5 -80q0 -85 60.5 -145.5t145.5 -60.5t145.5 60.5t60.5 145.5t-60.5 145.5t-145.5 60.5zM512 110q-75 0 -128.5 53.5t-53.5 128.5q0 49 24.5 91t66.5 66.5t91 24.5q37 0 70.5 -14.5t58 -39t39 -58t14.5 -70.5
q0 -75 -53.5 -128.5t-128.5 -53.5zM868 530h-162q-5 0 -22 27q-8 12 -12.5 18.5t-13 13t-17.5 6.5h-258q-9 0 -17.5 -6.5t-13 -13t-12.5 -18.5q-17 -27 -22 -27h-162q-7 0 -13.5 -2t-12 -6t-10 -9.5t-6.5 -12.5t-2 -14v-437q0 -18 13 -31t31 -13h712q18 0 31 13t13 31v437
q0 18 -13 31t-31 13zM868 29h-712q-8 0 -14 6t-6 14v437q0 5 3 10t7.5 7.5t9.5 2.5h162q7 0 12.5 3t11.5 9.5t9 11t9 14.5q3 5 5.5 8.5t6 8.5t6.5 7.5t5 2.5h258q2 0 5 -2.5t6.5 -7.5t5.5 -8.5t6 -8.5q8 -13 12.5 -19t12.5 -12.5t17 -6.5h162q4 0 7.5 -1.5t6.5 -4.5
t4.5 -6.5t1.5 -7.5v-437q0 -8 -6 -14t-14 -6zM253 454h-16q-5 0 -10 -2t-9 -5t-7 -7t-4.5 -9t-1.5 -10q0 -13 9.5 -22.5t22.5 -9.5h16q9 0 16.5 4.5t12 11.5t4.5 16q0 14 -9.5 23.5t-23.5 9.5z" />
    <glyph glyph-name="uniE616" unicode="&#xe616;" 
d="M787 512h-675v-524h675v524zM762 488v-436l-161 138l-124 -74l-177 202l-163 -163v333h625zM137 12v108l162 162l173 -198l126 76l164 -141v-6zM224 525h26v63h637v-476h-87v-24h112v524h-688v-87zM612 262q31 0 53 22t22 53.5t-22 53t-53 21.5t-53 -21.5t-22 -53
t22 -53.5t53 -22zM612 388q21 0 35.5 -15t14.5 -35q0 -11 -4 -20t-10.5 -16t-16 -10.5t-19.5 -3.5q-21 0 -35.5 14.5t-14.5 35.5q0 10 4 19t10.5 16t16 11t19.5 4z" />
    <glyph glyph-name="uniE617" unicode="&#xe617;" 
d="M434 331h-127q-21 0 -35.5 14.5t-14.5 34.5v127q0 14 6.5 25.5t18 18t25.5 6.5h127q20 0 34.5 -14.5t14.5 -35.5v-127q0 -32 -29 -45q-10 -4 -20 -4v0zM307 539q-9 0 -16 -4.5t-11.5 -11.5t-4.5 -16v-127q0 -12 9.5 -21.5t22.5 -9.5h127q6 0 12 2.5t10 6.5t6.5 10t2.5 12
v127q0 9 -4 16t-11.5 11.5t-15.5 4.5h-127v0zM759 527h-242q-2 0 -4 1t-3.5 3t-1.5 4.5t1.5 4.5t3.5 3.5t4 1.5h242q3 0 6 -2.5t3 -6.5q0 -3 -1.5 -5t-3.5 -3t-4 -1v0zM759 439h-242q-3 0 -6 2.5t-3 6.5q0 3 1.5 5t3.5 3t4 1h242q9 0 9 -9q0 -4 -2.5 -6.5t-6.5 -2.5v0z
M759 351h-242q-2 0 -3.5 1t-2.5 2t-2 3t-1 3q0 10 9 10h242q9 0 9 -10q-2 -7 -9 -9v0zM434 42h-127q-21 0 -35.5 14.5t-14.5 34.5v127q0 14 6.5 25.5t18 18t25.5 6.5h127q20 0 34.5 -14.5t14.5 -35.5v-127q0 -32 -29 -45q-10 -4 -20 -4v0zM307 250q-9 0 -16 -4.5
t-11.5 -11.5t-4.5 -16v-127q0 -13 9.5 -22t22.5 -9h127q8 0 15.5 4t11.5 11.5t4 15.5v127q0 7 -2.5 12.5t-6.5 10t-10 7t-12 2.5h-127v0zM759 237h-242q-3 0 -6 3t-3 7q0 9 9 9h242q3 0 6 -3t3 -6t-1.5 -5t-3.5 -3.5t-4 -1.5v0zM759 150h-242q-2 0 -3.5 0.5t-2.5 1.5l-2 4
q-1 1 -1 3q0 4 3 6.5t6 2.5h242q9 0 9 -9q0 -4 -2.5 -6.5t-6.5 -2.5v0zM759 62h-242q-3 0 -6 2.5t-3 6.5t3 6.5t6 2.5h242q9 0 9 -9q0 -2 -1.5 -4t-3.5 -3.5t-4 -1.5v0zM759 62z" />
    <glyph glyph-name="uniE618" unicode="&#xe618;" 
d="M808 456l-42 -2q-23 98 -87 147q-19 15 -35.5 24.5t-34.5 16.5h-1q-20 8 -41 12t-43 5h-6h-5h-1q-120 0 -202 -90q-36 -38 -52 -115l-42 2h-1q-19 0 -33 -13.5t-14 -32.5v-77q0 -13 6.5 -23.5t17.5 -16.5t23 -6h33q14 0 22 4.5t10.5 12t2.5 19.5v97q0 5 1 9l1 8
q15 76 47 112q36 38 83.5 59t96.5 21h10h1q38 -2 75 -15q30 -11 63 -36q19 -16 34 -36t26 -46.5t18 -60.5q1 -3 1.5 -7t0.5 -8v-97q0 -2 1 -5l-47 -12q5 13 8.5 26t5.5 26.5t2 27.5q0 87 -62 148q-59 59 -139 59t-138 -59q-62 -61 -62 -148q0 -12 1.5 -24t4 -23.5t6.5 -22.5
t9 -21.5t11 -20.5t13.5 -19.5t16.5 -17.5q4 -4 11 -12t11 -11.5t11 -9t14 -8.5q-11 -3 -21 -7q-26 -9 -50.5 -22.5t-45.5 -30.5q-43 -34 -73 -81q-31 -47 -44 -101l32 -8q25 99 106 164q39 31 86 47q48 18 101 18q12 0 25 -1t25.5 -3.5t25 -5.5t24.5 -8q23 -8 45 -20t41 -27
q39 -31 66.5 -73.5t38.5 -90.5l33 8q-7 27 -18 52.5t-26 49.5q-30 46 -73 80q-43 35 -96 53q-10 4 -20 7q8 3 14.5 8t10.5 9t11.5 12t11.5 12q8 8 15 16t12 18l80 19q8 -3 20 -3h33q19 0 33 13.5t14 32.5v77q0 12 -6.5 23t-17.5 17t-24 6zM771 422v1v1l38 2q3 0 5.5 -1
t4.5 -2.5t3.5 -3.5t2.5 -4.5t1 -4.5v-77q0 -7 -5 -11.5t-12 -4.5h-33h-2h-2v6v98zM215 426l38 -2v-2v-99q0 -3 -1 -6h-4h-33q-7 0 -12 4.5t-5 11.5v77q0 6 5 11t12 5zM510 209q-35 0 -66.5 14t-53 37.5t-34 56t-12.5 69.5q0 48 21 88.5t59.5 64.5t85.5 24q73 0 120 -51.5
t47 -125.5q0 -17 -2.5 -32.5t-7 -30t-11.5 -27.5l-92 -22q-10 9 -24.5 9t-25 -9t-10.5 -22q0 -3 0.5 -5.5t1.5 -4.5t2.5 -4.5t3 -4.5t3 -3.5t4 -3t5.5 -2.5l4 -2q3 -1 5.5 -1.5t5.5 -0.5q12 0 21.5 7t12.5 18l56 14q-49 -50 -119 -50z" />
    <glyph glyph-name="uniE619" unicode="&#xe619;" 
d="M512 494q-43 0 -80 -21t-58.5 -58t-21.5 -80q0 -66 47 -113t113 -47t113 47t47 113q0 43 -21.5 80t-58.5 58t-80 21zM512 215q-19 0 -37.5 6t-33 17t-25.5 26t-17 33t-6 38q0 32 16 59.5t43.5 43.5t59.5 16q49 0 84.5 -35t35.5 -84q0 -25 -9.5 -47t-25.5 -38t-38.5 -25.5
t-46.5 -9.5zM513 526q16 0 27 11.5t11 27t-11 26.5t-27 11q-10 0 -19 -5t-14 -14t-5 -19q0 -15 11 -26.5t27 -11.5zM513 567q3 0 3 -3q0 -1 -1 -1.5t-2 -0.5q-2 0 -2 2q1 2 2 3zM790 487q-23 54 -65 96t-96 65q-56 23 -117 23t-117 -23q-27 -12 -51 -28t-45 -37
q-42 -42 -65 -96q-23 -56 -23 -117t23 -117q23 -55 65 -96.5t96 -64.5q13 -5 27 -10l-46 -113h-14q-8 0 -14 -6t-6 -14t6 -14t14 -6h277v0h29q8 0 14 6t6 14t-6 14t-14 6h-15l-45 115q28 10 55 25q68 40 109 108q20 35 30.5 73.5t10.5 79.5q0 61 -23 117zM610 -31h-191
l42 104q25 -4 51 -4q14 0 28 1t28 4zM737 238q-17 -30 -41 -53.5t-53 -40.5q-61 -35 -131 -35q-108 0 -185 76q-37 37 -56.5 85t-19.5 100q0 108 76.5 184.5t184.5 76.5t184.5 -76.5t76.5 -184.5q0 -72 -36 -132zM737 238z" />
    <glyph glyph-name="uniE61A" unicode="&#xe61a;" 
d="M512 561q-70 0 -119.5 -49.5t-49.5 -119.5q0 -23 6 -45t17 -40.5t26.5 -34t34 -26.5t40.5 -17t45 -6q46 0 85 22.5t61.5 61.5t22.5 85q0 70 -49.5 119.5t-119.5 49.5zM512 243q-15 0 -30 3t-28 8.5t-25 14t-22 18.5t-18.5 22t-14 25t-8.5 28t-3 30q0 62 43.5 105.5
t105.5 43.5t105.5 -43.5t43.5 -105.5q0 -17 -4 -34t-11.5 -31.5t-17.5 -27.5t-23 -23t-27.5 -17.5t-31.5 -11.5t-34 -4zM766 524h-13q-11 0 -19 -7.5t-8 -18.5q0 -7 3.5 -13t10 -10t13.5 -4h13q11 0 19 8t8 19q0 5 -2.5 10t-6 8.5t-8.5 5.5t-10 2zM840 275v276
q0 15 -11 25.5t-26 10.5h-132q-3 0 -7.5 6.5t-10.5 15.5l-6 9q-2 3 -6 8t-7 7.5t-7.5 4.5t-8.5 2h-212q-10 0 -17.5 -8t-17.5 -23q-14 -22 -18 -22h-132q-15 0 -26 -10.5t-11 -25.5v-276q-125 -44 -132 -106q-1 -3 -1 -6q0 -52 85.5 -93t221.5 -58v-52l114 79l-114 80v-63
q-201 21 -252 83q-14 17 -14 35q0 49 92 87v-68q0 -4 1 -8t3 -7.5t4.5 -6.5t5.5 -5.5t6.5 -4.5t7.5 -3t9 -1h582q15 0 26 10.5t11 25.5v69q18 -7 33 -15t26.5 -17t19.5 -18t12 -18.5t4 -19.5q0 -52 -102 -85.5t-263 -39.5v-44q67 3 129 12t111.5 24t86 33.5t56.5 41.5t20 47
q0 7 -2 14t-5.5 14t-9 13.5t-12.5 13t-15 13t-18 12t-21.5 11t-24 11t-25.5 10.5zM820 193q0 -4 -2.5 -8t-6 -6t-8.5 -2h-582q-5 0 -8.5 2t-6 6t-2.5 8v358q0 7 5 12t12 5h132q7 0 14 5t11 10l10 15q2 5 4 7.5t5 6.5t5 6t4 2h212q1 0 2.5 -0.5t3 -3t3 -4t3.5 -4.5t3.5 -5
t2.5 -5l10 -15q4 -5 11 -10t14 -5h132q3 0 5 -1l4 -2q2 -1 3.5 -2.5t2.5 -3.5t1.5 -4t0.5 -4v-358z" />
    <glyph glyph-name="uniE61B" unicode="&#xe61b;" 
d="M704 331h-127q-21 0 -35.5 15t-14.5 35v127q0 13 7 24.5t18.5 18.5t24.5 7h127q20 0 35 -14.5t15 -35.5v-127q0 -13 -7 -24.5t-18.5 -18.5t-24.5 -7v0zM577 539q-13 0 -22 -9t-9 -22v-127q0 -13 9 -22t22 -9h127q6 0 12 2.5t10 6.5t6.5 10t2.5 12v127q0 13 -9 22t-22 9
h-127v0zM704 42h-127q-13 0 -24.5 7t-18.5 18.5t-7 24.5v127q0 10 4 19t11 16t16 10.5t19 3.5h127q5 0 10 -1t9.5 -2.5t8.5 -4.5t7 -6t6 -7t5 -8.5t3 -9.5t1 -10v-127q0 -8 -2.5 -15.5t-7.5 -13.5t-11 -11t-13.5 -7.5t-15.5 -2.5v0zM577 250q-8 0 -15.5 -4t-11.5 -11.5
t-4 -15.5v-127q0 -8 4 -15.5t11.5 -11.5t15.5 -4h127q6 0 12 2.5t10 6.5t6.5 10t2.5 12v127q0 13 -9 22t-22 9h-127v0zM438 331h-127q-21 0 -35.5 15t-14.5 35v127q0 21 14.5 35.5t35.5 14.5h127q20 0 34.5 -14.5t14.5 -35.5v-127q0 -32 -29 -45q-10 -4 -20 -5v0zM311 539
q-4 0 -8.5 -1t-7.5 -3t-6 -5t-5 -6.5t-3.5 -7.5t-1.5 -8v-127q0 -13 9.5 -22t22.5 -9h127q6 0 12 2.5t10 6.5t6.5 10t2.5 12v127q0 13 -9 22t-22 9h-127v0zM438 42h-127q-21 0 -35.5 14.5t-14.5 35.5v127q0 13 6.5 24.5t18 18t25.5 6.5h127q10 0 19 -3.5t15.5 -10.5
t10.5 -16t4 -19v-127q0 -32 -29 -45q-10 -4 -20 -5v0zM311 250q-9 0 -16 -4t-11.5 -11.5t-4.5 -15.5v-127q0 -13 9.5 -22t22.5 -9h127q8 0 15.5 4t11.5 11.5t4 15.5v127q0 13 -9 22t-22 9h-127v0zM763 63z" />
    <glyph glyph-name="uniE61C" unicode="&#xe61c;" 
d="M910 514l-46 -46q-36 -36 -88 -36t-89 36q-24 24 -32.5 56t0 64.5t32.5 56.5q1 0 1 1l2 2q2 1 3.5 3t4.5 4.5t5.5 5.5t6.5 6.5t8 6.5l7 8l8 8q20 19 8 36t-45 12q-74 -11 -126 -64q-10 -9 -18 -19.5t-14.5 -21t-12 -22t-10 -23.5t-7 -24.5t-4 -24.5t-1.5 -24.5t1 -25
t4 -24.5l-383 -383q-37 -37 -37 -88.5t36.5 -88t88.5 -36.5t88 36l383 383q56 -11 112 5t98 57q52 53 64 127q5 33 -12 45t-36 -8zM242 -36q-8 -8 -18.5 -11t-21.5 0t-19 11q-12 12 -12 29.5t12.5 29.5t29.5 12t29.5 -12t12.5 -29.5t-13 -29.5zM201 506l144 -144l59 59
l-144 144l-33 62l-103 73l-59 -58l74 -104zM684 200q-7 6 -15.5 6t-14.5 -6l-88 -88q-6 -6 -6 -15t6 -15l208 -208q24 -24 59 -24t59 24t24 58.5t-24 59.5z" />
    <glyph glyph-name="uniE61D" unicode="&#xe61d;" 
d="M1023 314v13l-1 13l-1 13l-1 12l-2 13l-2 12l-2 13l-3 12l-2 12l-3 12l-4 12l-3 11l-4 12l-5 11l-4 11l-5 12l-5 11l-6 11l-5 11l-6 10l-7 11l-6 11l-7 10l-7 10l-8 10l-8 10l-8 10l-8 10l-9 9l-8 10l-10 9l-9 9l-10 9l-10 9l-9 8l-10 8l-10 8l-11 8l-10 7l-10 7l-11 6
l-10 7l-11 6l-11 5l-11 6l-11 5l-12 5l-11 4l-12 5l-11 4l-12 3l-12 4l-12 3l-12 3l-12 2l-12 2l-13 2l-12 2l-13 1l-12 1l-13 1h-13h-13h-13h-13l-13 -1l-13 -1l-13 -1l-12 -2l-13 -2l-12 -2l-12 -2l-12 -3l-12 -3l-12 -4l-12 -3l-11 -4l-12 -5l-11 -4l-11 -5l-12 -5
l-10 -6l-11 -5l-11 -6l-11 -7l-10 -6l-11 -7l-10 -7l-10 -8l-10 -8l-10 -8l-10 -8l-9 -9l-10 -9l-9 -9l-10 -9l-8 -10l-9 -9l-8 -10l-9 -10l-7 -10l-8 -10l-7 -10l-7 -10l-6 -11l-7 -11l-6 -10l-6 -11l-5 -11l-5 -11l-5 -12l-5 -11l-4 -11l-4 -12l-3 -11l-4 -12l-3 -12
l-3 -12l-2 -12l-3 -13l-1 -12l-2 -13l-1 -12l-1 -13l-1 -13v-13l-1 -13l1 -13v-13l1 -13l1 -13l1 -13l2 -12l1 -12l3 -13l2 -12l3 -12l3 -12l4 -12l3 -12l4 -11l4 -12l5 -11l5 -11l5 -12l5 -11l6 -11l6 -10l7 -11l6 -11l7 -10l7 -11l8 -10l7 -10l9 -10l8 -10l9 -9l8 -10
l10 -9l9 -9l10 -9l9 -9l10 -8l10 -8l10 -8l10 -8l10 -7l11 -7l10 -6l11 -7l11 -6l11 -5l10 -6l12 -5l11 -5l11 -4l12 -5l11 -4l12 -3l12 -4l12 -3l12 -3l12 -2l12 -2l13 -2l12 -2l13 -1l13 -1l13 -1h13h13h18h18l18 2l18 2l18 2l16 4l18 3l16 4l16 5l17 6l16 6l15 6l15 7
l16 7l15 9l14 8l10 6l10 6l9 7l9 6l9 6l8 7l8 7l7 6l7 7l7 7l6 6l6 7l6 7l5 7l5 8l4 7l5 7l3 7l4 7l3 8l3 7l2 8l2 7l2 8l1 8l1 7v8v8v8v8l-1 8l-1 8l-2 7l-2 7l-1 6l-2 6l-3 7l-2 6l-3 6l-3 5l-4 6l-3 6l-4 5l-4 6l-5 5l-4 5l-5 5l-5 5l-5 4l-6 5l-6 4l-6 4l-6 4l-7 4l-6 4
l-8 4l-7 4l-7 3l-8 4l-8 3l-8 3l-9 3l-9 3l-9 3l-23 8l7 4l7 5l7 4l7 5l6 6l5 5l5 6l5 6l4 5l4 7l4 6l2 7l3 7l2 7l2 7l2 7v9l1 8l-1 9v8l-2 8l-2 8l-3 8l-3 8l-4 8l-4 8l-5 7l-5 8l-7 8l-7 7l-7 7l-8 7l-9 8l-8 7l-9 7l-10 6l-9 6l-10 5l-11 5l-10 5l-11 5l-12 4l-11 4
l-12 3l-12 3l-13 4l-12 2l-13 2l-16 2l-14 2l-16 2l-16 1l-16 1l-16 1l-16 1h-17h-17h-17h-17h-18l-18 -1l-19 -1l-18 -1l-19 -2v-161l15 2l15 2l15 1l15 1l15 1l16 1h15h15h16l15 -1h16l15 -2l16 -1l16 -1l15 -2l16 -2l13 -2l12 -3l12 -3l10 -2l10 -4l9 -3l8 -4l8 -4l3 -2
l3 -2l4 -3l2 -2l3 -2l2 -3l3 -2l2 -3l2 -3l1 -2l2 -3l1 -3l1 -3l1 -3l1 -3v-4v-3v-3v-2l-1 -3l-2 -7l-4 -8l-2 -3l-2 -3l-3 -3l-4 -2l-3 -2l-4 -2l-4 -2l-4 -1l-5 -1l-5 -1h-6h-5h-7h-6l-6 1l-8 1l-18 2l-19 2l-18 1l-18 2l-18 1h-18l-18 1h-17h-17l-17 -1h-18l-16 -1
l-17 -2l-16 -1l-17 -2l-16 -2v-165l23 3l22 2l22 2l22 2l21 1l21 1h20h20l19 -1h20l19 -2l18 -1l18 -2l18 -3l17 -3l17 -3l13 -2l13 -3l12 -3l11 -4l10 -4l9 -4l5 -2l4 -2l4 -3l4 -2l3 -3l3 -2l4 -3l2 -2l3 -3l3 -3l2 -3l2 -3l2 -3l1 -3l2 -3l1 -4l1 -3l1 -3v-4l1 -3v-3v-3
v-4v-2l-1 -3v-3l-1 -3l-1 -3l-1 -3l-2 -3l-1 -3l-2 -3l-4 -7l-5 -6l-3 -4l-4 -3l-4 -3l-4 -4l-4 -3l-4 -3l-5 -3l-5 -2l-4 -3l-5 -3l-6 -2l-5 -3l-5 -2l-6 -2l-6 -2l-7 -2l-6 -2l-6 -1l-7 -2l-7 -1l-14 -3l-15 -2l-16 -1l-17 -2h-18h-18h-10h-9l-10 1h-10l-9 1l-10 2l-9 1
l-9 1l-9 2l-9 2l-9 3l-9 2l-8 3l-9 3l-8 3l-9 3l-8 4l-9 3l-8 4l-8 5l-8 4l-8 5l-7 4l-8 5l-8 6l-7 5l-8 6l-7 6l-7 6l-7 6l-7 7l-8 7l-6 6l-7 8l-6 7l-6 7l-6 7l-6 8l-6 7l-5 8l-5 8l-5 7l-5 8l-4 8l-4 8l-4 8l-4 8l-4 9l-3 8l-3 9l-3 8l-3 9l-2 8l-2 9l-3 9l-1 9l-2 9
l-2 10l-1 9l-1 9v10l-1 10v9v10v10v9l1 10v9l1 10l1 9l2 9l2 9l1 9l3 9l2 9l2 9l3 8l3 9l3 9l3 8l4 8l4 9l4 8l4 8l4 8l5 8l5 7l5 8l5 8l6 7l6 8l6 7l6 7l6 7l7 7l6 7l8 7l7 7l7 6l7 6l8 6l7 6l8 5l7 6l8 5l8 5l8 4l8 5l8 4l8 4l8 4l8 3l9 4l8 3l9 3l8 3l10 2l8 3l9 1l9 2
l9 2l9 1l10 2l10 1h9l10 1h9h10h10h9l10 -1h9l10 -1l9 -2l9 -1l9 -2l9 -2l9 -1l9 -3l9 -2l8 -3l9 -3l9 -3l8 -4l8 -3l8 -4l8 -4l9 -4l7 -5l8 -4l8 -5l8 -5l7 -6l8 -5l7 -6l7 -6l8 -6l7 -6l7 -7l7 -7l6 -7l7 -6l6 -8l6 -7l6 -7l6 -7l6 -8l5 -7l5 -8l5 -8l4 -8l5 -8l4 -8l4 -8
l4 -8l4 -9l3 -8l3 -9l3 -8l3 -9l2 -9l2 -9l3 -9l1 -9l2 -9l1 -9l2 -9v-10l1 -9l1 -10v-9v-10l-2 -41l9 -5l8 -5l8 -5l8 -6l7 -5l8 -6l7 -5l7 -7l7 -6l8 -6l6 -7l7 -6l7 -8l6 -6l6 -8l6 -7l5 17l4 17l4 17l2 18l2 8v9l1 9l1 9l1 9v9v9l1 9z" />
    <glyph glyph-name="uniE61E" unicode="&#xe61e;" 
d="M721 569h-172v-74h172v-77h-91h-81v-78v-77v-74h81h91v-84h-172v-74h172h81v74v84v71v3h-172v77h91h81v78v77v74h-81zM222 569v-74v-77v-78h81h91v-77h-172v-3v-71v-84v-74h81h172v74h-172v84h91h81v74v77v78h-81h-91v77h172v74h-172h-81zM512 812q-104 0 -199 -40.5
t-163.5 -109t-109 -163.5t-40.5 -199t40.5 -199t109 -163.5t163.5 -109t199 -40.5q70 0 136 18.5t122 51.5t103.5 80.5t80.5 103.5t51.5 122t18.5 136q0 104 -40.5 199t-109 163.5t-163.5 109t-199 40.5zM512 -105q-110 0 -203 54.5t-147.5 147.5t-54.5 203q0 82 32.5 157
t86.5 129t129 86.5t157 32.5q66 0 127.5 -20.5t111.5 -58t87.5 -87.5t58 -111.5t20.5 -127.5q0 -82 -32.5 -157t-86.5 -129t-129 -86.5t-157 -32.5z" />
    <glyph glyph-name="uniE61F" unicode="&#xe61f;" 
d="M970 19q6 6 14.5 17t23 34.5t16.5 35.5l-3 10q-8 7 -26 -28q-1 -2 -2 -3q3 2 1.5 15t-14.5 3l-53 -58q-61 -58 -87 -63l-46 -21q-153 -58 -268 16q-89 57 -140 192q-3 7 -6 20t-6 50t2.5 72.5t28.5 82t63 83.5q199 182 414 23q7 8 18.5 20t36.5 29t37 10q1 0 3 2l5 5
q3 3 5.5 7.5t3 10t-3.5 11.5l-36 47q-3 -1 -8 -1.5t-19.5 -1.5t-28 -0.5t-29.5 4t-27.5 9.5t-19.5 18t-7 28q0 2 0.5 4t-0.5 7.5t-4 10.5t-9.5 10t-16 7.5t-26 2t-37.5 -4.5l-7 7q-4 4 -10.5 13.5t-5.5 15.5l-3 9q-16 21 -101 7q-4 -1 -10 -2t-27 -7t-43 -15t-54.5 -27
t-64.5 -41t-71.5 -58.5t-76.5 -77.5l-44 -31q-115 -71 -135 3q-3 15 -3 33q-4 -5 -10.5 -12t-21 -29t-22.5 -43t-8 -48.5t15 -50.5q1 -2 3.5 -5t11.5 -10.5t18.5 -13t25 -10t32.5 -4.5t39.5 6.5t46.5 20.5q0 -4 -1 -10t-1.5 -26.5t0 -41.5t4 -51.5t9.5 -59.5t17.5 -62.5
t27 -63t40 -59.5t53.5 -54q4 -3 11.5 -9.5t32.5 -24t51 -32.5t65 -30.5t77.5 -24t86.5 -8.5t94 13q4 1 11 3t27.5 9.5t40.5 18t47 29t50 41t45 56t37 71.5q-34 -33 -48 -30zM553 139h308v235l-308 -2v-233z" />
    <glyph glyph-name="uniE620" unicode="&#xe620;" 
d="M629 718l275 -279l96 96l-180 189q-16 14 -33 26.5t-30 20.5t-23.5 13.5t-16.5 7.5l-5 2q-42 14 -82 17t-66.5 -2.5t-47.5 -12.5t-31 -14l-10 -6q31 -1 58 -7t44 -14.5t29.5 -17t17.5 -13.5zM768 273q-15 2 -25 -1.5t-12 -8.5l-3 -4l-211 -214q-8 -10 -15.5 -7.5t-12 7.5
t-4.5 6l-205 205q-7 4 -8 11.5t2 13.5l3 5l209 214q7 9 14.5 8.5t12.5 -6.5l5 -5l207 -203q8 -11 15.5 -10.5t13.5 6.5l5 5l113 110l-314 316q-103 71 -250 -3q-30 -15 -49 -29q-166 -97 -219 -291q-15 -54 -16 -92q0 -76 15.5 -143.5t40 -114t55.5 -85.5t61 -62.5
t56.5 -39.5t41 -22.5t15.5 -6.5q61 -27 123 -37t110.5 -5.5t96 19.5t78.5 31t59 36t37 27.5t13 12.5q47 38 80.5 89t48 96t22.5 85t8 63v24h-217z" />
    <glyph glyph-name="uniE621" unicode="&#xe621;" 
d="M808 44q-26 -1 -56 -2t-63 -2t-56 -2q-19 -77 -104.5 -95.5t-157.5 34.5t-56 149q9 59 57.5 95.5t113 34t113.5 -47.5q9 -9 15 -18.5t11 -21.5t8.5 -26.5t6.5 -33.5q26 1 85.5 3t82.5 3q1 55 -15.5 104t-46.5 86t-70 65t-87.5 42.5t-97 18t-101.5 -9t-99 -39.5
q-108 -61 -138 -195q-29 -128 26 -245q50 -105 147 -147v-6q-93 2 -178.5 64t-106.5 146l1 603q48 33 150 105t151 106l4 -2l4 -2l4 -2q-9 -117 3 -350q10 10 33.5 34t36.5 35.5t35 28.5t46.5 27t54.5 16q94 18 173 -9q74 -26 129 -74.5t82.5 -107t33 -125t-12 -128
t-60.5 -115.5t-106 -87q-3 0 -13.5 -6t-14.5 -7q0 1 1.5 3.5t4 7.5t4.5 8q4 15 12 44t11 43z" />
    <glyph glyph-name="uniE622" unicode="&#xe622;" 
d="M708 641q-23 54 -77.5 86.5t-120.5 32.5q-93 0 -158 -63t-65 -153q0 -25 3 -36t7 -13t11 5q43 37 95 58t109 21q19 0 37 -2t35 -7q5 -1 6 -1t3 -0.5t3.5 0.5t3.5 1.5t5 2.5q14 9 30.5 17.5t32 15t33.5 13.5q4 2 6.5 5t3 7t-2.5 10zM226 576q-58 -6 -106 -48t-68 -105
q-11 -34 -11.5 -70t10 -68t29.5 -60t47 -48.5t61 -31.5q8 -3 12.5 -4t11 -2.5t12.5 -1.5q11 -1 14 2t-1 12q-47 112 -12 219q11 35 30 66q5 7 5.5 9.5t-1.5 10.5q-6 24 -9.5 50t-4.5 56q-1 15 -19 14zM140 97q-14 -58 11.5 -116.5t79.5 -96.5q74 -55 164 -42t142 85
q15 21 19 32q4 10 2 14t-12 3q-56 -5 -110.5 8.5t-100.5 47.5q-15 11 -28.5 23t-24.5 26l-5 5q-1 1 -3 2.5t-4 1.5t-7 1q-44 3 -105 19q-14 4 -18 -13zM568 -134q52 -30 115 -24t116 45q75 54 90.5 143.5t-37.5 161.5q-15 21 -24 28q-15 12 -19 -4q-27 -118 -119 -184
q-15 -11 -30.5 -20t-32.5 -15q-8 -4 -10 -5.5t-5 -9.5q-17 -41 -50 -94q-9 -13 6 -22zM920 203q13 11 23 24.5t18 28.5t13 31.5t7.5 34t2 35.5t-3.5 36t-9 36q-28 87 -108 129.5t-165 15.5q-9 -3 -13 -4.5t-10.5 -4.5t-10.5 -6q-10 -6 -10.5 -10t8.5 -9q103 -63 138 -170
q4 -12 7 -24t4.5 -23.5t2.5 -23.5q1 -7 1.5 -9t2 -4t5.5 -6q34 -28 74 -77q10 -12 23 0zM508 28q-18 0 -36 3t-34 7.5t-32 12.5q-6 2 -6 8v183q0 11 6.5 13.5t14.5 -5.5l25 -26l31 -30l26 -26l1 -1q4 -4 7 0q1 1 2 1q34 33 102.5 100t102.5 100q9 9 17 1l2 -3q19 -52 19 -96
q0 -99 -73.5 -170.5t-174.5 -71.5zM512 519q27 0 53 -5.5t49 -16.5q6 -4 6 -8v-183q0 -11 -6.5 -13.5t-14.5 4.5q-53 54 -82 83q-3 3 -4.5 3t-4.5 -3q-1 -1 -206 -201q-2 -2 -4.5 -2.5t-5.5 -0.5t-5.5 1.5t-3.5 4.5q-9 24 -14 47.5t-5 47.5q0 100 73.5 171t174.5 71z" />
    <glyph glyph-name="uniE623" unicode="&#xe623;" 
d="M470 457v-4h4l3 -2l6 -2h60l7 2l2 2h2l2 4l2 3v8v306l-21 2h-24h-24l-23 -2v-306l2 -8zM618 803v-100h1v-43v-222l-5 -6l-4 -3l-6 -2l-9 -2h-54h-4l-4 -2l-3 -4l-2 -5v-148l2 2l3 2h6h121l8 2h5l4 2l2 5l2 2l2 4v6v347v42q109 -49 176 -150.5t67 -224.5
q0 -155 -102.5 -270.5t-254.5 -136.5v86v79v35h91l8 2l5 2h4l2 4l2 2l2 5v6v147l-4 -5l-6 -4l-7 -2l-6 -2h-119h-4l-4 -2l-3 -5l-2 -4v-142h-32v142v4l-4 5l-5 2h-4h-118l-7 2l-6 2l-7 4l-2 2l-2 3v-147l2 -6v-5l2 -2l4 -4h5l2 -2l9 -2h90v-200q-152 21 -254.5 136.5
t-102.5 270.5q0 123 67 224.5t176 150.5v-42v-347l2 -6v-4l2 -2l4 -5l3 -2h4l9 -2h122h5l4 -4v148v5l-4 4l-5 2h-4h-54l-6 2l-7 2l-6 3l-2 2l-3 4v222v105v38q-175 -37 -290 -176.5t-115 -321.5q0 -103 40.5 -197t109 -162.5t163.5 -108.5t199 -40t199 40t163.5 108.5
t109 162.5t40.5 197q0 91 -31 174.5t-85 148.5t-129 111t-161 64z" />
    <glyph glyph-name="uniE624" unicode="&#xe624;" 
d="M599 743v-105q2 1 5 1.5t12 1.5t17 0.5t17.5 -4.5t16.5 -11.5t11 -22t4 -34.5l3 -256l-122 -69l3 168q0 11 -5.5 20t-15.5 13.5t-21.5 6.5t-23 0t-21.5 -6.5t-15.5 -13.5t-5.5 -20l3 -168l-122 74l3 251q-1 27 7.5 44t20.5 22t24.5 6t21.5 -1l9 -2v105h174zM0 9l91 52
l-7 7q-4 4 -11 17t-7.5 25.5t9.5 28.5t34 28l221 131l120 -71l-147 -81q-14 -8 -17.5 -23t2.5 -30t16.5 -28t24.5 -16.5t28 3.5l144 86l-4 -142l-218 -123q-23 -14 -42 -15.5t-29.5 6.5t-17.5 19t-9.5 18.5t-2.5 8.5l-91 -52zM937 -141l-91 53q-1 -4 -2.5 -9.5t-9.5 -18
t-18 -19.5t-29 -6t-42 15l-223 126l1 140l144 -87q14 -7 28 -3.5t24.5 17t16.5 28t2.5 30t-17.5 22.5l-147 82l125 67l216 -127q24 -13 34.5 -28.5t8.5 -29t-7 -24.5t-11 -18l-7 -6l91 -53z" />
    <glyph glyph-name="uniE625" unicode="&#xe625;" 
d="M405 452q-27 55 -71.5 88t-92.5 40t-94 -4t-82 -44.5t-51 -80.5q-8 -52 -14 -106v-330l156 -146v402l9 38q34 102 137 132q46 14 103 11zM838 457q-21 42 -59.5 71t-82.5 40t-90 4t-83 -30t-60 -67.5t-22 -103.5q-6 -174 -152 -216q-59 -17 -112 -10q36 -118 173 -130
q38 -4 68 1q28 4 52 15.5t40.5 26t30 35t22 38.5t14.5 40t8.5 37t4 31.5t1.5 20.5v8q4 30 15 55.5t25.5 43.5t34 32.5t38 23.5t39 16t36.5 10t31 5t20.5 2.5t7.5 0.5zM868 731v-402l-9 -38q-34 -102 -137 -132q-46 -14 -103 -11q28 -55 71.5 -88t91 -39t92.5 5t80.5 44.5
t51.5 80.5q16 37 18 104v330z" />
    <glyph glyph-name="uniE626" unicode="&#xe626;" 
d="M1024 303q0 33 -14.5 63.5t-40 56.5t-62 48t-80 37.5t-95 24t-105.5 8.5q-131 0 -234.5 -45.5t-142.5 -117.5q-8 -13 -8 -28q0 -17 10 -32.5t28 -25.5l201 -117q8 -4 17.5 -6.5t19.5 -2.5t19 2.5t17 6.5l191 111q21 12 21 32q0 19 -20 31l-71 41l-157 -90l-119 68
q35 32 96 51t134 19q110 0 187.5 -41t77.5 -99q-1 -58 -54 -106.5t-142 -75t-193.5 -24t-192.5 34t-138 82.5t-48 110q0 77 62 142t167.5 102t230.5 36q33 -1 66 -4q-83 30 -187 30q-83 0 -154 -20q-139 -38 -225 -119.5t-86 -182.5q0 -89 68.5 -164.5t186.5 -119.5t257 -44
t257 44t186.5 119.5t68.5 164.5v0z" />
    <glyph glyph-name="uniE627" unicode="&#xe627;" 
d="M94 243l-5 -28h148l7 28h-150zM472 215l5 28h-169l-6 -28h170zM566 357l-23 -114l-7 -28l-23 -114h-64h-170l-5 -26h273l37 168l23 114h64h264l-25 -114h-262l-59 -282h-65h-275l-5 -26h381l36 166l23 114h66h155l-23 -114h-156l-35 -166l-25 -114h-64h-447l59 280h-150
h-64l25 114l5 28l24 114h65h148l59 280h65h170l29 142h20h414l-25 -114h-369l-5 -28l-23 -114h-66h-168l-7 -26h275l5 26l25 114h64h264l-24 -114h-263l-29 -140h-65h-275l-7 -26h170h65z" />
    <glyph glyph-name="uniE628" unicode="&#xe628;" 
d="M932 100l-111 -161h-604l-119 148l261 674l148 -353l141 357l136 -317h219l-8 19l-7 20l-7 19l-9 18l-8 18l-11 18l-10 16l-11 17l-13 16l-6 9l-6 8l-13 15l-14 14l-14 14l-15 15l-16 12l-15 12l-16 12l-17 12l-17 10l-18 10l-18 9l-19 8l-18 9l-10 3l-9 4l-20 6l-20 5
l-20 5l-21 4l-20 3l-21 1l-23 3h-21h-13l-13 -1l-26 -2l-26 -3l-13 -3l-13 -2l-11 -2l-13 -4l-24 -7l-23 -7l-24 -9l-22 -11l-22 -12l-11 -5l-11 -6l-10 -7l-11 -6l-20 -16l-9 -7l-11 -7l-17 -16l-18 -18l-10 -8l-8 -9l-8 -9l-8 -9l-14 -20l-16 -20l-13 -21l-5 -11l-6 -10
l-12 -23l-11 -22l-8 -24l-8 -23l-7 -24l-6 -24l-5 -26l-3 -26l-2 -26l-1 -26v-13l1 -13l2 -27l3 -25l3 -13l2 -12l2 -12l4 -13l7 -24l8 -24l8 -23l11 -23l12 -21l6 -12l5 -11l7 -10l6 -10l16 -20l7 -10l7 -10l16 -19l18 -17l8 -8l10 -9l8 -8l9 -8l20 -15l20 -15l21 -13
l11 -5l11 -7l22 -11l22 -11l24 -9l23 -8l24 -6l24 -6l26 -5l26 -3l26 -3h26h21l20 2l20 2l11 1l9 1l20 4l19 4l20 5l19 6l17 7l19 7l18 7l18 8l17 10l17 9l16 11l15 11l16 11l15 12l14 13l14 13l14 14l13 13l13 15l12 16l11 15l11 15l10 17l10 17l9 17l8 17l8 18l7 19h-72z
M179 93h284l-145 351zM805 399h209l-4 21h-215zM825 349h196l-2 22h-202zM470 93h283l-145 351zM867 251h154l3 21h-166zM838 321l8 -21h178v21h-186zM888 201h126l4 21h-139zM910 153h93l5 20h-108z" />
    <glyph glyph-name="uniE629" unicode="&#xe629;" 
d="M458 375l93 97l-240 229l-92 -96zM480 112l-90 -94l73 -70l-15 -15l-291 279l15 15l75 -72l90 94l-240 229l-89 -93l93 -89l-99 -103l423 -405l99 103l92 -89l90 93zM565 487l85 89l-75 72l15 15l290 -279l-14 -15l-73 70l-85 -89l226 -217l88 92l-93 89l89 93l-423 405
l-89 -93l-92 89l-88 -91zM352 264l92 96l-240 230l-92 -96zM694 335l-93 -96l226 -217l93 96zM587 223l-93 -96l226 -217l93 97z" />
    <glyph glyph-name="uniE62A" unicode="&#xe62a;" 
d="M1023 322q-2 51 -15 100.5t-30 84.5t-34 63t-28 41l-12 14q-48 57 -107 96.5t-108 55.5t-91 24.5t-66 7.5l-24 -1q-49 2 -96.5 -7t-84.5 -24t-70 -33.5t-57 -37.5t-41.5 -34.5t-26.5 -25.5l-8 -10q-28 -33 -50 -69.5t-33 -62t-18 -50.5t-8.5 -33.5t-2.5 -12.5
q-9 -38 -11 -77t1.5 -71t10.5 -64t14.5 -53.5t16 -41.5t12 -26t5.5 -9q49 -90 108 -142t151 -95q22 -10 47 -17.5t51 -12t54 -6.5t55 -1.5t54.5 4t53 9t49.5 14t45 18.5q85 43 140 95.5t101 137.5q53 99 53 252zM460 -96q-8 1 -21 2.5t-51 13t-72 30t-75.5 56.5t-70.5 88
l-5 8q-3 4 -11.5 20.5t-15.5 33.5t-14.5 43.5t-11.5 53t-2.5 60t8.5 65.5q6 25 14 48.5t17 43t18 36t19 30.5t18.5 25t17.5 21l16 14q5 6 12 12t8 7q20 19 86.5 50t115.5 30v-188h-80q-4 0 -11 -1t-26 -9t-33.5 -20t-27 -37t-13.5 -58v-174q0 -4 1 -11.5t7.5 -26.5t17.5 -34
t34 -29t54 -18h77v-185zM396 200q-1 0 -5.5 -1t-10 3.5t-6.5 14.5v166q3 18 17 18h233q1 -1 5.5 0t10 -4t6.5 -14v-162v-3v-6q0 -4 -1 -7t-4.5 -5t-8.5 0h-236zM850 78q-36 -54 -93.5 -94.5t-106.5 -58.5t-86 -21v185h88q2 1 5.5 1.5t13.5 4.5t19 9t20.5 15t20 21.5
t14.5 28.5t7 37v197q0 4 -2 11t-10 24t-20 30.5t-35 25.5t-53 13h-68v188q2 0 6.5 -0.5t18.5 -3.5t28.5 -7t35.5 -11.5t40 -17t41.5 -24.5t42.5 -33q23 -21 42 -43.5t32 -43.5t22.5 -39.5t16.5 -37.5t10.5 -31.5t6.5 -27.5q5 -21 6 -51t-2.5 -71t-19 -88t-41.5 -87z" />
    <glyph glyph-name="uniE62B" unicode="&#xe62b;" 
d="M279 631v-787q23 -12 47.5 -21.5t50.5 -16.5v668q0 51 -27 93t-71 64zM745 631v-787q-46 -24 -98 -38v668q0 51 27 93t71 64zM747 741q0 14 -13 20v1q-105 50 -222 50q-59 0 -115 -13t-107 -38q-3 -1 -5.5 -3t-4 -4.5t-2.5 -6t-1 -6.5q0 -5 2 -9.5t6 -7.5t8 -4
q69 -22 113.5 -81.5t44.5 -133.5v-713l20 -2q10 -1 20.5 -1.5t20.5 -0.5q30 0 61 4v713q0 74 44.5 133.5t113.5 81.5q16 5 16 21zM162 333q11 -4 22 0t17 14v359q-94 -71 -147.5 -177.5t-53.5 -228.5t53.5 -228.5t147.5 -177.5v359q-6 10 -17 14t-22 0q-38 -14 -49 -54v-1
q-1 -2 -3 -4t-5 -2q-4 0 -6 3q-10 12 -17.5 26.5t-11.5 31t-4 33.5q0 52 33 91q3 3 6 3q2 0 3.5 -1t2.5 -2.5t2 -3.5v1l-1 4q9 -44 50 -59zM977 267q-39 -14 -49 -54q-2 -7 -8 -7q-5 0 -7 4q-15 19 -23.5 42t-8.5 48q0 51 32 90q3 3 7 4q3 0 5 -2t3 -4v-1q5 -18 17.5 -32.5
t31.5 -21.5q13 -4 25 1.5t17 18.5l1 6q-12 105 -63.5 195t-133.5 152v-812q82 62 133.5 152t63.5 195l-1 6q-5 13 -17 18.5t-25 1.5z" />
    <glyph glyph-name="uniE62C" unicode="&#xe62c;" 
d="M962 -6v657q-1 36 -16.5 61t-36 33.5t-40.5 12.5t-34 2l-14 -2l-633 -2q-27 0 -48.5 -7.5t-34.5 -19.5t-22 -28.5t-13 -30.5t-6 -29t-2 -20v-8l-2 -633q1 -112 97 -134q27 -6 49 -4l630 -2q107 1 125 100q5 29 1 54zM801 29q-7 5 -19.5 13t-51.5 26.5t-79 31.5t-96.5 20
t-109 -0.5t-111.5 -37.5t-108 -83q5 6 13.5 17.5t30.5 49t37.5 76.5t26 96t6 112t-32.5 121t-80 126q7 -5 18.5 -14t49 -32t76 -39t94.5 -26.5t108.5 -5t114 36t115.5 86.5q-6 -6 -14.5 -17.5t-30 -48t-37 -74t-25.5 -92.5t-5.5 -108t32 -115.5t78.5 -118.5z" />
    <glyph glyph-name="uniE62D" unicode="&#xe62d;" 
d="M511 1q-124 0 -212 88t-88 212t88 212t212 88t212 -88t88 -212t-88 -212t-212 -88zM557 447q0 17 -14.5 29.5t-32 12.5t-32 -12.5t-14.5 -29.5v-173q0 -18 12.5 -30t29.5 -12q18 0 34.5 12.5t16.5 29.5v173zM512 210q-8 0 -15 -2.5t-13 -7t-10 -10t-6.5 -13t-2.5 -15.5
q0 -19 13.5 -32.5t33 -13.5t33.5 13.5t14 32.5q0 8 -2.5 15.5t-7 13t-10 10t-13 7t-14.5 2.5z" />
    <glyph glyph-name="uniE62E" unicode="&#xe62e;" 
d="M570 275zM481 274.5q0 37.5 26 63.5t63.5 26t63.5 -26t26 -63q0 -19 -7 -35.5t-19 -28.5t-28.5 -19t-35.5 -7q-37 0 -63 26t-26 63.5zM449 345q7 13 17 23.5t21.5 19t24.5 15t28 9.5t30 3q39 0 71 -19t51 -51h140v77q0 23 -16.5 39.5t-39.5 16.5h-528q-15 0 -28 -7.5
t-20.5 -20.5t-7.5 -28v-77h257zM698 334q13 -28 13 -59q0 -59 -41 -100t-99.5 -41t-99.5 41t-41 100q0 31 13 59h-251v-210q0 -23 16.5 -39t39.5 -16h528q23 0 39.5 16t16.5 39v210h-134zM770 485h-88l11 25h66zM332 486h-55l5 16h45zM590 531h-153l-29 -46h213zM539 494
h-52v26h52v-26z" />
    <glyph glyph-name="uniE62F" unicode="&#xe62f;" 
d="M481 454q0 -42 29.5 -71.5t71.5 -29.5t71.5 29.5t29.5 71.5q0 27 -13.5 50.5t-37 37t-50.5 13.5q-42 0 -71.5 -29.5t-29.5 -71.5zM268 454q0 -28 13.5 -51t36.5 -36.5t51 -13.5q20 0 39 8t32.5 21.5t21.5 32t8 39.5q0 27 -13.5 50.5t-37 37t-50.5 13.5q-42 0 -71.5 -29.5
t-29.5 -71.5zM196 188h-2q-9 0 -16 7t-7 16v96q0 10 7 16.5t16 6.5h2q5 0 9.5 -1.5t7.5 -4.5t4.5 -7.5t1.5 -9.5v-96q0 -9 -6.5 -16t-16.5 -7zM841 362l-92 -81h-29h-2v32q0 13 -8.5 21.5t-21.5 8.5h-416q-6 0 -11.5 -2t-9.5 -6t-6 -10t-2 -12v-262q0 -8 4 -15t10.5 -11
t14.5 -4h416q13 0 21.5 9t8.5 21v64h2h22q2 -1 5 -1l94 -81q5 0 8.5 3.5t3.5 8.5v305q0 3 -2 6t-4.5 4.5t-5.5 1.5z" />
    <glyph glyph-name="uniE630" unicode="&#xe630;" 
d="M250 622v-548h100v50h-50v449h324v-48h50v97h-424zM425 356h274v-29h-274v29zM425 237h274v-30h-274v30zM425 416h274v-30h-274v30zM425 297h224v-30h-224v30zM350 526v-548h424v548h-424zM724 27h-324v449h324v-449zM425 117h169v-30h-169v30zM425 177h274v-30h-274v30z
" />
    <glyph glyph-name="uniE631" unicode="&#xe631;" 
d="M512 -102q-109 0 -201.5 53.5t-146 146t-53.5 201.5t53.5 201.5t146 146.5t201.5 54t201.5 -54t146 -146.5t53.5 -201.5t-53.5 -201.5t-146 -146t-201.5 -53.5zM512 670q-101 0 -186 -49.5t-134.5 -135t-49.5 -186t49.5 -186t134.5 -135t186 -49.5t186 49.5t134.5 135
t49.5 185.5q0 61 -18.5 117.5t-52.5 102t-80 79.5t-102.5 53t-116.5 19zM512 43q-15 0 -28.5 7.5t-21 20.5t-7.5 29q0 23 16.5 40t40.5 17t40.5 -17t16.5 -40q0 -16 -7.5 -29t-21 -20.5t-28.5 -7.5zM512 214q-12 0 -20 16.5t-8 40.5l-29 256q0 24 16.5 40.5t40.5 16.5
t40.5 -16.5t16.5 -40.5l-29 -256q0 -7 -0.5 -13.5t-2 -12t-3.5 -10.5t-4.5 -9t-5 -6.5t-6 -4t-6.5 -1.5zM512 214z" />
    <glyph glyph-name="uniE632" unicode="&#xe632;" 
d="M777 117l7 3l3 1l2 2l2 2l3 3l1 -1l3 -3l3 -2l3 -2l6 -3h-33zM807 130l1 -4l4 1l1 1h1l2 3l1 3l1 2l2 3v1v2v1l-1 1l-1 1h-1l-1 1h-2h-28l1 4l-2 2h-1h-1h-1h-1l-1 -1l-1 -3l-1 -1l-2 -3l-2 -3l-2 -3v4l-2 2l-12 4h-2h-1h-1h-1h-1v-1l-1 -1v-1v-1v-1l1 -1h1v-1h2h1
q0 -1 1 -1t2 -1l4 -1q3 -1 4 -1v-1h1h2v-1v-1l1 -1l-3 -1l-4 -3l-4 -2l-3 -2q-3 -1 -5 -3h-1v-1h-1v-1v-1v-1l1 -1l1 -1h1h1h1h1l5 2q3 2 5 3l2 1v-2v-1l1 -2h-5h-1h-1l-1 -1l-1 -1l-1 -1l-1 -1v-1v-1v-19v-1l1 -1l3 -3h-8l-1 -1h-1v-1h-1v-1l-1 -1l1 -1v-1l1 -1h1l1 -1h1
l8 1l6 1l6 2l5 3l4 4l3 4l2 6l1 6v1l-1 3h16h1v-1v-1v-14l1 -3l-4 2q-1 0 -3 1t-3 1l-1 1h-3h-1h-1h-1h-1l-1 -1v-3v-1v-1h1h1v-1l4 -1l3 -1l3 -1l3 -1l3 -2l3 -1l3 -2l3 -2h3l3 2v3l-3 2l-8 4l2 2h1l1 1v1v1v17v1v1l-2 3l6 -1h3l2 2v1v1v1l-1 1l-1 1h-1l-4 1l-4 2l-4 1
l-4 4l-3 2l-2 2l-1 2v1v2h13q0 -1 -1 -2t-1 -2l-1 -1l-1 -1v-1v-1v-1zM808 126v0v0zM774 128l-1 4h2l2 1l2 2l1 1l2 2h8v-1l-2 -3l-1 -2l-2 -2l-3 -2l-3 -2l-4 -1l-4 -2zM786 92l1 2l1 2v-2zM783 109l-1 -2v-1l-1 -5l-1 -3l-2 -4l-3 -2l-4 -3l-8 -3l2 4h1v1v1v16v1h1h16z
M724 120h-31l3 2l2 2l1 2l1 2l1 3l1 2v3v5h15v-12v-2l1 -2v-1l1 -1v-1zM715 102l-2 -1l-3 -3l-2 2l-2 1l-2 2l-1 2l-3 4l-3 3h24l-1 -2l-1 -2l-1 -2l-2 -2zM687 118l-3 -1l-1 -1q-1 -1 -2 -1v12h9v5l-1 1v1h-1h-1h-6v13v1v1h-1l-1 1h-1h-1h-1h-1v-1h-1v-1v-1v-13h-6h-1h-1
l-1 -1v-1v-2v-1v-1h1h1v-1h1h6v-16l-2 -1l-3 -2l-3 -1l-1 -1l-1 -1v-1v-1l1 -1v-1h1v-1h1h1h1q2 1 3 1l2 1v-15l-3 1h-3l-2 -3v-1v-1v-1l1 -1h1v-1h1l3 -1h2h2l2 1l1 1l2 2l1 -2l1 -1h1l1 -1h1h1h1l3 1l3 1l2 1l3 1l3 1l3 1l4 3l2 -2l3 -1l2 -1l3 -1l3 -2l4 -1h4l3 -1h1h1h1
v1h1l1 1v1v1v1v1h-1l-1 1l-1 1h-1h-2l-3 1h-2l-3 1l-2 1l-2 1l-4 2l3 3l2 2l2 2l1 2l2 3l1 2l1 3l1 2v2v1v1v1l-1 1l-1 1l-4 2h9h1h1l1 1l1 1v1v1v1v1l-1 1h-1l-1 1h-1h-6h-2v13v2v1v1l-1 1h-1l-1 1h-1h-2h-17h-1h-2l-1 -1h-1l-1 -1v-1l-1 -1v-2v-5v-2v-2l-1 -1v-2l-3 -3
l-4 -2v-1h-1v-1v-1v-1v-1h1zM690 127v0v0zM681 84v22l2 1l5 3v1l4 3l-2 -4v-1l1 -1v-1v-1l3 -4l3 -3l2 -2l1 -1l2 -2l-4 -3l-3 -1l-5 -1l-5 -2h-1zM497 125v-6v0l-1 -1h-21v7h22zM475 139v1h1v0h20h1v-1v-6h-22v6zM488 93l-4 2l-3 -2l-2 -2l-1 -1q0 -1 -1 -2t-2 -1v24h4
l2 -5l2 -4l2 -5zM467 109v-15l-4 2l-3 -2q-2 -3 -3 -3l-2 -3v19h9h1zM467 124v-11l-2 1h-1h-9v8h7l1 1h1l1 1l1 2l-1 2v1h-1v1h-1h-1h-13l3 6h12l2 1h2v-8l-2 -3zM501 111q-1 -2 -2 -2.5t-2 -2t-2 -2.5l-1 -1l-2 -2l-2 4q-1 2 -2 3v3h13zM506 107v1l-1 1v1h-4l2 2l1 1v1l1 1
v1v26v1l-1 1v1l-1 1h-1l-1 1h-1h-1h-26h-1h-1l-1 -1h-1l-1 -1l-1 -2h-1l-1 1h-1h-10q1 1 1 2v1v1v1l-1 1h-1v1h-1h-1h-1h-1l-1 -1l-1 -1v-1l-1 -3l-1 -3l-1 -3l-1 -3l-1 -3l-2 -2l-1 -3l-2 -2l-1 -1v-1v-1v-1v-1l1 -1h1l3 -1l3 2l1 2h2v-8h-7h-1l-1 -1v-1h-1v-1v-1v-1l1 -1
v-1h1l1 -1h7v-23v-2l1 -1v-1l1 -1h1l1 -1h1l1 1h1l2 1l2 2l3 2q3 2 4 4l2 2v-5l1 -2v-2l1 -1l1 -1l1 -1h2h1l2 1l3 1l2 2l3 2q1 2 2 2l1 2l1 1v1v3l3 -3l4 -3l4 -3l5 -3h3l3 1v4l-2 2l-4 2l-3 2l-3 2l-2 2q5 4 6 5q0 1 1 2l1 1l1 1l1 1v1v0zM552 147h-1l-1 -1h-1l-1 -1v-1
l-1 -1l1 -1v-1v-1h1v-1h1h1h37h1h1l1 1v1l1 1v1v1h-1v1v1h-1h-1l-1 1h-36zM535 148l-3 -4l-2 -4l-3 -4l-3 -4h-1v-1v-1v-1v-1l1 -1v-1l3 -1l3 2l3 4l3 4l3 4l3 5v3l-2 3h-3zM529 106l2 2v-26v-1l1 -1v-1l1 -1h1h1h1h1h1v1v1h1v1v1v37l2 4q1 2 2 6l-3 2h-3l-2 -2l-1 -3l-2 -2
l-1 -2l-1 -2l-3 -4l-4 -5l-1 -3l1 -2l3 -2zM544 126l1 -1v-1v-1h1v-1h1h1h1h27v-30v-1v-1l-1 -1v-1h-1v-1h-1h-1h-2l-4 1l-7 2h-1l-1 -1h-1l-2 -2l1 -4l2 -1l4 -1l3 -1l3 -1h3h2h2h2h2l1 1l2 1l1 1l1 1v2l1 2v2v2v30h8h1v1h1h1v1v1h1v1v1l-1 1v1h-1v1h-1h-1h-44h-1h-1v-1h-1
v-1zM306 139h6l-3 -13v-3v-1l1 -2q0 -1 1 -2q1 -3 2 -5v-2l1 -3v-2v-1v-1v-1v0l-1 -1h-1v0l-3 1h-1v-1h-2v37zM356 125v1v2l5 -2h3l3 2v4l-2 2l-3 1l-3 1l-3 2l-2 2l-3 2l-2 2l-2 2l-3 3l-1 1h-1h-2h-1h-1l-1 -2l-4 -4l-1 -1l-2 -2l-2 -2l-2 -2l-2 -2l-6 -4l2 7v3v1v2v1
l-1 1h-1l-1 1h-2h-11h-2h-1l-1 -1l-1 -1v-1l-1 -1v-1v-1v-60v-1l1 -1l1 -1h1h1h1h1l1 1l1 1v1v15l2 -1h1l3 -1h1h1l1 1h1h1l1 1l1 1h1v1l1 1v1v1l1 1v2v1v1l-1 3v4l-2 3l-2 5v2v3l2 -1l1 -1h1h1l1 1h1l3 2v-2v-1l1 -1h1v-1h1h8l-2 -2h-1v-1v-1v-1q1 -6 2 -8q1 -4 1 -7l1 -6
v-1l1 -1l1 -1h1h1h1l2 1v-3v-1l1 -2h-14l3 2v1l1 1v1q-1 2 -1 3q0 2 -1 3v3l-1 3l-1 3l-3 5l-1 3l-1 1l-1 1l-1 1h-1h-1v-1h-1l-1 -1v-1l-1 -1q0 -2 2 -5q1 -1 1 -2l2 -6l2 -5l1 -5h1v-1v-1l3 -2h-11h-1l-1 -1v-1h-1v-1v-1v-1l1 -1v-1h1h1h40h1h1l1 1l1 1v1v1v1h-1v1l-1 1
h-1h-1h-10q0 1 0.5 1.5t0.5 1.5l3 6l1 4l1 3v3l1 3l1 4v3v1v1v1l-1 1l-1 1h-1h-2l-2 -1v-1v-1l-1 -4l-1 -7l-1 -4l-3 -10q0 1 -0.5 4t-0.5 5v3q-1 2 -1 3l-1 5l-1 5h-1l-2 4h15l1 1v1zM355 122v1v-1zM331 130l3 3l1 1l2 2l2 3v1l1 1l3 -2l1 -2l2 -1l3 -3q3 -2 4 -3h-22z
M235 130v10v1h1v0h1h31h1v-1v-11h-1h-32v0l-1 1v0zM223 110l3 -2h1h19l-2 -3l-3 -2l-2 -2l-3 -2l-4 -3l-4 -2l-5 -3v19zM228 144v-17v-1v-1l1 -1v-1l1 -1h1h1l1 -1h15v-6h-21h-1h-1l-2 -2v18l1 2l1 2zM261 105l-3 3h21h1l1 1h1v1v1l1 1h-1v1v1h-1l-1 1h-1h-23v6h15h1l2 1h1
v1l1 1l1 1v1v1v16v1v1l-1 1l-1 1v1h-1h-2h-1h-37h-1h-2h-1v-1l-2 -2l-1 3l-3 2h-1h-1h-1v-1l-1 -1l-1 -1v-1l-1 -4l-1 -3l-1 -4l-1 -3l-2 -3l-1 -3l-2 -2l-2 -3v-1h-1v-1v-1v-1v-1h1v-1l3 -1l4 2v-34v-1l1 -1v-1l1 -1h1h1h1h1h1v1h1v1v1v1v3l3 -1h1h1l4 2l4 2l3 2l2 3l3 2
l4 4v-18v-1h1v-1v-1h1h1l1 -1l1 1h1h1v1v1h1v1v19l3 -3l2 -3l3 -2l3 -2l4 -3l3 -2l4 -2h3l2 2l1 4l-2 2l-4 2l-4 2l-4 2l-3 3l-3 2zM635 114v2v1l-1 1v1h-1l-1 1h-2h-1h-1h-1l-1 -1h-1l-1 -1v-1v-1l-1 -2l1 -1v-1v-1l1 -1h1l1 -1h1h1h1h2l1 1h1v1l1 1v1v1zM408 114v2v1l-1 1
l-1 1l-1 1h-1h-2h-1h-1l-1 -1h-1l-1 -1v-1v-1l-1 -2l1 -1v-1v-1l1 -1h1l1 -1h1h1h2h1l1 1l1 1l1 1v1v1zM985 228q0 -11 -5.5 -20.5t-14.5 -14.5t-20 -5h-866q-17 0 -28.5 11.5t-11.5 28.5v271q0 17 11.5 28.5t28.5 11.5h866q17 0 28.5 -11.5t11.5 -28.5v-271zM473 353h-19
v-7h-18v16h32v16h-32v11h37v17h-99v-17h37v-11h-32v-16h32v-16h-37v-17h99v24zM292 421h-56v16q0 3 -4 3h-22q-2 0 -2.5 -0.5t-0.5 -2.5v-16h-56q-8 0 -13.5 -5.5t-5.5 -13.5v-61q0 -4 1.5 -7.5t4 -6t6 -4t7.5 -1.5h56v-26q0 -3 3 -3h22q2 0 3 1t1 2v26h56q5 0 9 2.5t6.5 7
t2.5 9.5v61q0 16 -15 18q-2 1 -3 1zM207 343h-49v57h49v-57zM284 343h-48v57h48v-57zM725 400h15q2 1 3 3v9h131v-9q0 -3 3 -3h15q1 0 2 1t1 2v11q0 7 -5 11.5t-11 4.5h-57v8q0 1 -1 2t-2 1h-22q-3 0 -3 -3v-8h-56q-3 0 -6.5 -1t-5.5 -3.5t-3 -5.5t-1 -6v-11q0 -3 3 -3z
M667 402q-4 0 -5 -3l-22 -42q-1 -3 2 -3h22q1 0 2.5 1t2.5 2l21 42q2 3 -2 3h-21zM492 436h-138q-3 0 -6.5 -1.5t-6 -4t-4 -6t-1.5 -7.5v-101q0 -5 2.5 -9.5t6.5 -7t9 -2.5h138q8 0 13.5 5.5t5.5 13.5v101q0 5 -2.5 9.5t-7 7t-9.5 2.5zM486 317h-125v100h125v-100zM893 386
h-28v12q0 3 -3 3h-19q-1 0 -2 -1t-1 -2v-12h-64v12q0 3 -3 3h-19q-1 0 -2 -1t-1 -2v-12h-28q-3 0 -3 -3v-14q0 -3 3 -3h28v-9q0 -3 0.5 -6t2 -5.5t3.5 -5t4.5 -5t6.5 -3.5q0 -1 1 -1q10 -5 15 -7q-16 -7 -30 -7h-26q-3 -1 -3 -3v-14q0 -1 0.5 -2t2.5 -1h25q17 0 34 6
q5 2 21 9q17 -7 22 -9q16 -6 33 -6h26q3 0 3 3v14q0 3 -3 3h-26q-15 0 -31 7q3 1 8.5 4t8.5 4q16 8 16 25v9h28q2 1 3 3v14zM840 360q0 -5 -1.5 -8.5t-6.5 -5.5l-24 -12q-17 8 -24 12q-8 4 -8 14v6h64v-6zM571 354h22q3 0 2 3l-22 42q-1 3 -5 3h-22q-3 0 -1 -3l21 -42
q1 -1 2.5 -2t2.5 -1zM701 344h-70v69h64q2 0 2.5 1t0.5 2v14q0 3 -3 3h-155q-4 0 -4 -3v-14q0 -3 4 -3h64v-69h-70q-2 -2 -3 -4v-14q0 -1 1 -2t2 -1h70v-27q1 -2 3 -3h21q3 0 3 3v27h70q1 0 2 1t1 2v14q0 4 -3 4zM1015 507l-1 7l-1 6l-3 7l-3 6l-3 6l-4 5l-5 5l-5 5l-5 4
l-6 4l-6 2l-7 3l-7 2l-7 1h-7h-866h-7l-7 -1l-7 -2l-7 -3l-6 -2l-6 -4l-5 -4l-5 -5l-5 -5l-4 -5l-3 -6l-3 -6l-3 -7l-1 -6l-1 -8l-1 -6v-400l1 -7l1 -7l1 -6l3 -7l3 -6l3 -6l4 -5l5 -5l5 -5l5 -4l6 -3l6 -3l7 -3l7 -2l7 -1h7h866h7l7 1l7 2l7 3l6 3l6 3l5 4l5 5l5 5l4 5l3 6
l3 6l3 7l1 6l1 7l1 7v400zM1005 101q0 -25 -17.5 -42.5t-42.5 -17.5h-866q-25 0 -42.5 17.5t-17.5 42.5v398q0 17 8 30.5t22 21.5t30 8h866q16 0 30 -8t22 -21.5t8 -30.5v-398z" />
    <glyph glyph-name="uniE633" unicode="&#xe633;" 
d="M512 745q-52 0 -102 -11.5t-94 -33.5t-82.5 -52.5t-69 -69t-52.5 -82.5t-33.5 -94t-11.5 -102q0 -90 35 -172.5t95 -142.5t142.5 -95t172.5 -35t172.5 35t142.5 95t95 142.5t35 172.5t-35 172.5t-95 142.5t-142.5 95t-172.5 35zM512 -114q-112 0 -207.5 55.5t-151 151
t-55.5 207.5t55.5 207.5t151 151t207.5 55.5q67 0 130.5 -21t114 -59.5t89 -89t59.5 -114t21 -130.5q0 -160 -108 -278q-104 -115 -258 -133q-24 -3 -48 -3zM544 408h-127v-21h54v-328h-54v-20h182v20h-55v349zM498.5 470q20.5 0 35.5 14q7 8 10.5 16.5t3.5 18.5
q0 7 -1.5 13.5t-4.5 12t-8 9.5q-15 15 -35 15q-21 0 -35.5 -14.5t-14.5 -35.5q0 -5 1 -9.5t3 -9t4.5 -8.5t6.5 -8q14 -14 34.5 -14z" />
    <glyph glyph-name="uniE634" unicode="&#xe634;" 
d="M349 300q0 61 43.5 104.5t105 43.5t105 -43.5t43.5 -104.5h20q0 70 -49 119.5t-119 49.5t-119.5 -49.5t-49.5 -119.5t49.5 -119.5t119.5 -49.5v21q-74 0 -119 58q-29 41 -30 90zM617 300l39 -65l39 65h-78z" />
    <glyph glyph-name="uniE635" unicode="&#xe635;" 
d="M676 505h-328q-17 0 -29 -12t-12 -29v-328q0 -17 12 -29t29 -12h328q17 0 29 12t12 29v328q0 17 -12 29t-29 12zM707 136q0 -13 -9 -22t-22 -9h-328q-8 0 -15 4.5t-11.5 11.5t-4.5 15v328q0 13 9 22t22 9h328q13 0 22 -9t9 -22v-328zM609 324h-194q-9 0 -15 -6t-6 -15
q0 -5 3 -10t7.5 -7.5t10.5 -2.5h194q9 0 15 6t6 14.5t-6 14.5t-15 6z" />
    <glyph glyph-name="uniE636" unicode="&#xe636;" 
d="M676 495q8 0 15 -4.5t11.5 -11.5t4.5 -15v-328q0 -8 -4.5 -15t-11.5 -11.5t-15 -4.5h-328q-8 0 -15 4.5t-11.5 11.5t-4.5 15v328q0 13 9 22t22 9h328zM676 505h-328q-17 0 -29 -12t-12 -29v-328q0 -17 12 -29t29 -12h328q17 0 29 12t12 29v328q0 17 -12 29t-29 12z
M609 324h-77v76q0 5 -1.5 8.5t-4 6.5t-6.5 4.5t-8 1.5q-3 0 -6 -1l-4 -2q-3 -1 -4.5 -3t-3 -4.5t-2 -5t-0.5 -5.5v-76h-77q-9 0 -15 -6t-6 -15q0 -3 1 -6.5t3 -6t4.5 -4t5.5 -2.5t7 -1h77v-77q0 -9 6 -15t14 -6q2 0 4 0.5t4 1.5t3.5 2t3 2.5t2.5 3t2 3.5t1 4v4v77h77
q9 0 15 6t6 14.5t-6 14.5t-15 6z" />
    <glyph glyph-name="uniE637" unicode="&#xe637;" 
d="M345 -7l334 307l-334 307v-126l206 -180l-205 -180zM345 -7z" />
    <glyph glyph-name="uniE638" unicode="&#xe638;" 
d="M678 121l-205 180l206 180v126l-334 -307l334 -307zM679 -7z" />
    <glyph glyph-name="uniE639" unicode="&#xe639;" 
d="M512 491q31 0 53 -22l304 -303q6 -7 8 -15.5t0 -17t-8.5 -15t-15 -8.5t-17 0t-14.5 9l-304 303q-6 7 -12 0l-304 -303q-5 -5 -11 -7.5t-12 -2.5t-12.5 2.5t-11.5 7.5q-6 6 -8 14.5t0 17t8 15.5l304 303q11 11 24.5 16.5t28.5 5.5zM512 491z" />
    <glyph glyph-name="uniE63A" unicode="&#xe63a;" 
d="M512 109q-31 0 -53 22l-304 303q-9 10 -9 24t9 23q5 5 11.5 7.5t12.5 2.5t12 -2.5t11 -7.5l304 -303q6 -7 12 0l304 303q10 10 23.5 10t23.5 -10q6 -6 8 -14.5t0 -17t-8 -15.5l-304 -303q-22 -22 -53 -22zM512 109z" />
    <glyph glyph-name="uniE63B" unicode="&#xe63b;" 
d="M509 755q-92 0 -176.5 -36t-145.5 -97t-97 -145.5t-36 -177t36 -177t97 -145.5t145.5 -97t176.5 -36q74 0 143.5 23t125.5 65.5t98 98.5t65 125t23 143.5t-23 144t-65 125t-98 98t-125.5 65.5t-143.5 23zM509 -108q-110 0 -204 54.5t-148.5 148.5t-54.5 204.5t54.5 204.5
t148.5 148.5t204 54.5q83 0 158.5 -32.5t130 -87t86.5 -130t32 -158t-32 -158t-86.5 -130t-130 -87t-158.5 -32.5zM681 332h-344q-4 0 -9 -3t-8 -8t-5 -10.5t-2 -10.5q0 -11 7.5 -21.5t16.5 -10.5h344q9 0 16.5 10.5t7.5 21.5t-7.5 21.5t-16.5 10.5z" />
    <glyph glyph-name="uniE63C" unicode="&#xe63c;" 
d="M511.5 754q-92.5 0 -176.5 -36t-145 -97t-97.5 -145t-36.5 -176.5t36.5 -177t97.5 -145.5t145 -97t176.5 -36t177 36t145.5 97t97 145.5t36 177t-36 176.5t-97 145t-145.5 97t-177 36zM511.5 -108q-110.5 0 -204.5 54.5t-148.5 148.5t-54.5 204q0 83 32.5 158.5t87 130
t130 86.5t158.5 32q110 0 204 -54.5t148.5 -148t54.5 -204t-54.5 -204.5t-148.5 -148.5t-204.5 -54.5zM683 332h-139v139q0 6 -5.5 12t-12.5 9t-14 3q-11 0 -21.5 -7.5t-10.5 -16.5v-139h-140q-4 0 -7.5 -2t-6.5 -5.5t-5.5 -7.5t-3.5 -8.5t-1 -8.5q0 -11 7 -21.5t17 -10.5
h140v-140q0 -10 10.5 -17t21.5 -7t21.5 7t10.5 17v140h139q10 0 17 10.5t7 21.5t-7 21.5t-17 10.5z" />
    <glyph glyph-name="uniE63D" unicode="&#xe63d;" 
d="M855 349l-278 289q-13 13 -29.5 20.5t-35.5 7.5q-38 0 -65 -28l-278 -289q-13 -13 -18.5 -27.5t-5 -23t3.5 -15.5q1 -3 2.5 -5t4 -5.5t6.5 -6.5t8.5 -6t11.5 -4.5t15 -1.5h40v-222q0 -39 25.5 -68.5t62.5 -29.5h47h71v53v182v10v9q0 2 0.5 7t2 6.5t4 3.5t6.5 3t9 1h47h47
q5 0 9 -1t6.5 -3t4 -3.5t2 -6.5t0.5 -7v-9v-10v-183v-52h71h47q25 0 45.5 14t31.5 36.5t11 47.5v222h40q35 0 48 29q2 5 2.5 11t-0.5 14.5t-6.5 19.5t-15.5 21zM827 300h-35h-23h-28v-268q0 -20 -12 -36t-30 -16h-73v189q0 85 -67 85h-47h-47q-36 0 -51.5 -22t-15.5 -63
v-189h-73q-18 0 -30 16t-12 36v268h-28h-23h-35q-1 0 -1 2l-1 1q8 14 8 15l278 288q13 14 31 14q6 0 11.5 -1.5t10.5 -4.5t9 -8l278 -288q0 -1 8 -15l-1 -1q0 -2 -1 -2zM827 300z" />
    <glyph glyph-name="uniE63E" unicode="&#xe63e;" 
d="M872 -23l-148 148q0 1 -1.5 1.5t-1.5 1.5q78 91 78 212q0 67 -26 127.5t-69.5 104.5t-104.5 70t-127.5 26t-127 -26t-104.5 -70t-70 -104.5t-26 -127.5q0 -53 16.5 -103t47 -90.5t70.5 -71t90 -47t104 -16.5q121 0 213 79l1 -1q0 -1 1 -2l148 -148q8 -8 19 -8t18.5 8
t7.5 18.5t-8 18.5zM472 65q-114 0 -195 80.5t-81 194.5t81 194.5t195 80.5t194.5 -80.5t80.5 -194.5q0 -75 -37 -138.5t-100.5 -100t-137.5 -36.5zM472 65z" />
    <glyph glyph-name="uniE63F" unicode="&#xe63f;" 
d="M612 77q-4 15 -20 15h-45v76q-18 -3 -35.5 -3t-34.5 3v-76h-45q-4 0 -8.5 -2t-7.5 -5.5t-4 -7.5l-16 -57q-1 -5 0 -10t4 -9q2 -3 4.5 -4.5t5.5 -2.5t7 -1h191q8 0 14.5 6t6.5 15q0 4 -2 8zM726 529q-8 3 -17 3q-4 0 -8 -1v56q0 9 -6 14.5t-14 5.5h-338q-8 0 -14 -5.5
t-6 -14.5v-56q-4 1 -8 1q-9 0 -17 -3q-35 -9 -51 -47t-4 -83q10 -39 37 -63.5t58 -24.5h6l5 -9v-1l1 -1q1 -2 2 -4.5t2.5 -4.5t2.5 -4l1 -1v-1q4 -6 10 -13q10 -13 22 -24v-1q8 -6 13 -10q27 -21 58 -30q9 -3 16 -4v0q10 -2 17 -3h1q9 -1 17 -1q9 0 17 1h1q9 1 17 3v0
q9 1 16 4q31 9 58 30h1q7 6 12 10v1q12 11 22 24h1q4 7 9 13q0 1 0.5 1t0.5 1q4 7 8 13q0 1 1 2q3 6 4 9h7q31 0 57.5 24.5t37.5 63.5q11 45 -5 83t-51 47zM275 408q-5 21 -3 39.5t11.5 32t22.5 17.5q5 1 9 1t8 -1v-94q0 -7 1 -17v-1v-1q1 -7 2 -16v-2l1 -1q1 -9 3 -15v-1
v-1q1 -2 1 -3q-18 3 -33.5 20.5t-22.5 42.5zM615 446l-56 -42l20 -67q2 -4 -2 -7q-2 -1 -4 -1t-3 1l-58 40l-58 -40q-3 -2 -7 1q-2 1 -2.5 3t0.5 3l20 67l-56 42q-4 3 -2.5 7t6.5 5l70 1l23 66q2 4 6.5 4t5.5 -4l23 -66l71 -1q4 -1 5 -5q1 -2 0.5 -4t-2.5 -3zM749 408
q-7 -25 -22.5 -42.5t-33.5 -20.5v1q0 1 0.5 1.5t0.5 1.5v1l2 8q1 4 1 7q0 1 0.5 1.5t0.5 1.5q0 3 0.5 5.5t0.5 5t1 5.5v1v1v6q0 2 0.5 5t0.5 6v94q4 1 8 1q2 0 4 -0.5t5 -0.5q21 -6 30 -32.5t1 -56.5z" />
    <glyph glyph-name="uniE640" unicode="&#xe640;" 
d="M184 133l108 -108q2 1 6.5 4t22 8.5t39.5 8t59.5 1t80.5 -10.5q76 -15 132 -12.5t88.5 13t51.5 29.5q45 45 67 135q3 15 -1 21.5t-13 5t-14 -3.5l-10 -4q-13 -7 -30 -27t-31 -39t-20 -23q-1 -2 -3 -4t-9 -6t-15 -6t-21 0t-27 10q-13 7 -26 12.5t-21.5 9t-15.5 5.5t-11 2
l-3 1q12 0 30.5 1t53.5 9.5t43 23.5q6 12 2.5 22.5t-13 17.5t-21 10t-20.5 2q-21 -3 -41.5 -4t-66.5 4.5t-89 19.5q-15 2 -27 3t-26 -3t-25.5 -8t-24.5 -11t-22 -12.5t-19 -12.5t-15.5 -11.5t-11 -9.5t-6.5 -6q-8 -6 -17.5 -13t-24.5 -18t-27 -18.5t-16 -7.5zM184 133
l108 -108q2 1 6.5 4t22 8.5t39.5 8t59.5 1t80.5 -10.5q76 -15 132 -12.5t88.5 13t51.5 29.5q45 45 67 135q3 15 -1 21.5t-13 5t-14 -3.5l-10 -4q-13 -7 -30 -27t-31 -39t-20 -23q-1 -2 -3 -4t-9 -6t-15 -6t-21 0t-27 10q-13 7 -26 12.5t-21.5 9t-15.5 5.5t-11 2l-3 1
q12 0 30.5 1t53.5 9.5t43 23.5q6 12 2.5 22.5t-13 17.5t-21 10t-20.5 2q-21 -3 -41.5 -4t-66.5 4.5t-89 19.5q-15 2 -27 3t-26 -3t-25.5 -8t-24.5 -11t-22 -12.5t-19 -12.5t-15.5 -11.5t-11 -9.5t-6.5 -6q-8 -6 -17.5 -13t-24.5 -18t-27 -18.5t-16 -7.5zM585 577
q-97 0 -165.5 -68.5t-68.5 -166.5q0 -12 1 -24.5t4 -24.5l6 -24q10 4 19.5 6t19.5 3.5t20 1.5q15 0 29 -3h1q55 -19 113 -22v40h-98v27h98v6l-24 38h-75v26h57l-67 103h47l82 -138l85 138h49l-70 -103h55v-26h-73l-26 -38v-6h98v-27h-98v-41q19 1 37 3q3 1 7 1q3 0 7 -0.5
t7.5 -1.5t7.5 -2t7.5 -2.5t7.5 -3.5t7.5 -4.5t6.5 -5t5.5 -6t4.5 -6.5q6 -10 6 -22t-6 -23q-13 -25 -68 -35q2 -2 5 -3.5t6 -2.5q17 -9 31 -9h1h2q3 1 6 2.5t5.5 3t5.5 3t5 3.5h1l2 2q5 3 23 28q38 50 59 62q13 24 20 51.5t7 56.5q0 104 -78 174q-68 60 -157 60z" />
    <glyph glyph-name="uniE641" unicode="&#xe641;" 
d="M371 312h72v-29h-72v29zM371 377h137v-28h-137v28zM371 442h198v-29h-198v29zM371 504h198v-28h-198v28zM655 189v-145h-400v512h400v-127l51 51v127h-502v-614h502v247zM743 474l77 -77l-258 -258l-77 77zM743 474l77 -77l-258 -258l-77 77zM468 199l77 -77l-86 -9z" />
    <glyph glyph-name="uniE642" unicode="&#xe642;" 
d="M512 517q-90 0 -153.5 -63.5t-63.5 -153.5t63.5 -153.5t153.5 -63.5t153.5 63.5t63.5 153.5q0 35 -11 68.5t-31 60t-46.5 46.5t-60 31t-68.5 11zM608 133v215h-18v-224q-37 -16 -78 -16q-53 0 -97 26t-69 70h214v17h-223q-9 19 -13 38.5t-4 40.5q0 35 12 67t33.5 57.5
t50.5 41.5v-214h17v223q38 17 79 17q53 0 97 -26t69 -70h-214v-17h223q9 -19 13 -38.5t4 -40.5q0 -35 -12 -67.5t-34 -57.5t-50 -42zM464 252h97v97h-97v-97zM479 333h66v-66h-66v66zM351 364h18v-112h-18v112zM383 364h18v-112h-18v112zM464 460h112v-17h-112v17zM464 429
h112v-18h-112v18zM448 157h112v-17h-112v17zM448 189h112v-18h-112v18zM655 348h17v-112h-17v112zM623 348h17v-112h-17v112z" />
    <glyph glyph-name="uniE643" unicode="&#xe643;" 
d="M720 314q-1 0 -2 -1h-4h-5h-3h-3h-4v1h-2q-1 0 -3 3.5t-2 8.5q-1 15 -17 39t-46 34q-3 22 12 55q2 4 2.5 7.5t0.5 5.5t-0.5 4t-2 3t-3.5 1h-3q-4 0 -8.5 -1t-6.5 -1.5t-3 -1.5l-21 -11q-21 -14 -38 -40l-47 6h-13q-23 0 -45 -4t-46.5 -13.5t-45 -30t-33.5 -49.5
q0 -2 -2 -5q-23 10 -26 26q-3 15 15 33q2 3 2 6.5t-2 5.5q-7 6 -13 0q-24 -25 -19 -48q2 -12 12.5 -22t15 -12.5t10.5 -5.5q-11 -40 1 -75t29 -50l17 -15h2q1 0 2.5 -2.5t0.5 -6.5q0 -2 -3 -7t-5 -10.5t-3 -11.5t2.5 -13t12.5 -13q7 -5 14.5 -9t13 -5.5t9.5 -2.5t7 -1t5 1
q0 -1 1 -1q11 0 22 23l3 8q1 4 2 6t3 3.5t5 1.5q2 0 5 -1q5 -1 15 -2t22 -1q21 0 32 3l6 1q4 0 6 -1.5t2.5 -3.5t0.5 -4v-3q1 -4 3 -10t9.5 -14t16.5 -8q4 0 8 1.5t8 3.5q5 3 11 6t9.5 5t8.5 4.5t7.5 4.5t5.5 4.5t4 4.5t2 4.5t0.5 5t-1.5 5.5q-4 9 -3.5 14.5t2.5 8.5l3 2
l18 10q21 17 28 44l1 4q2 2 7 2q2 0 7.5 -0.5t9.5 -0.5q7 0 12.5 1.5t10 6.5t4.5 14v56q0 2 -1 5.5t-6.5 9t-15.5 5.5zM725 239q0 -3 -1 -4q-1 -2 -8 -2h-4q-1 0 -2.5 0.5t-3.5 0.5h-7q-15 0 -22 -9l-2 -4q-1 -2 -1.5 -4t-0.5 -4q-5 -18 -19 -30q-4 -3 -7.5 -5t-5.5 -3
l-2 -1l-2 -1l-2 -1q-1 -1 -2 -1.5t-3 -2.5t-3.5 -4.5t-2.5 -5.5q-6 -14 2 -32l-5 -4q-2 -1 -3 -2l-4 -2q-1 -1 -3 -2t-4.5 -2t-4.5 -2q-1 -1 -3 -2l-4 -2l-4 -2l-4 -2q-3 -2 -4.5 -2.5t-2.5 -0.5q-2 0 -4 2t-3.5 4.5t-2.5 5.5t-2 5q0 11 -6.5 18t-11 8t-8.5 1l-11 -2
q-8 -2 -28 -2q-24 0 -32 2q-4 2 -9 2q-8 0 -14 -4.5t-8 -8.5t-4 -9q-1 -1 -1 -2q-1 -3 -2 -5q-4 -9 -8 -12l-3 -1h-1q-3 0 -6.5 0.5t-11.5 4t-16 9.5t-8 11q0 4 5 14q1 0 1 1q4 7 5 12q2 12 -5 21q-3 5 -9 7q-4 3 -8 7t-10 12t-11 16q-26 48 -3 104q11 26 30 44q16 16 39 26
q18 9 39 13t46 4h10q5 0 10 -1h8q5 -1 8.5 -1.5t6.5 -1t5.5 -1t4 -0.5h2.5l1 -1l12 -2l6 10q15 23 34 35q7 6 15 8v1h1q-14 -35 -11 -58l2 -11l10 -3q8 -3 15.5 -7t13.5 -10t11 -13q5 -8 8 -16t3 -11q1 -20 15 -27q3 -2 8 -2l6 -1q3 0 6.5 0.5t9.5 0.5h1q3 0 4 -1t1 -3v-54z
M394 420q-2 4 -2 8l-2 6v8q0 23 16.5 40t40.5 17q12 0 22 -4.5t18 -12t12.5 -17.5t5.5 -22q4 0 8.5 -1t8.5 -2v2q0 30 -22 52t-53 22t-53 -21.5t-22 -52.5q0 -9 2 -17t5 -15q7 6 15 10zM626 295zM607 295q0 5 2.5 9.5t7 7t9.5 2.5q8 0 13.5 -5.5t5.5 -13.5q0 -5 -2.5 -9.5
t-7 -7t-9.5 -2.5q-8 0 -13.5 5.5t-5.5 13.5z" />
    <glyph glyph-name="uniE644" unicode="&#xe644;" 
d="M769 747h-451q-3 0 -6 -1l-6 -2q-3 -1 -5.5 -2.5t-4.5 -3.5t-3.5 -4.5t-2.5 -5.5l-2 -6q-1 -3 -1 -6v-832q0 -13 9 -22t22 -9h451q13 0 22 9t9 22v832q0 6 -2.5 12t-6.5 10t-9.5 6.5t-12.5 2.5zM478 708h131q4 0 7 -3t3 -7q0 -10 -10 -10h-131q-10 0 -10 10q0 4 3 7t7 3z
M544 -104q-13 0 -22 9t-9 21.5t9 21.5t21.5 9t21.5 -9t9 -21q0 -7 -2 -12.5t-6.5 -9.5t-10 -6.5t-11.5 -2.5zM774 22q0 -9 -8 -16t-20 -7h-405q-7 0 -13.5 3t-10.5 8.5t-4 11.5v616q0 6 4 11.5t10.5 8.5t13.5 3h405q12 0 20 -6.5t8 -16.5v-616z" />
  </font>
</defs>
</svg>
