<?xml version="1.0" standalone="no"?>
<!DOCTYPE svg PUBLIC "-//W3C//DTD SVG 1.1//EN" "http://www.w3.org/Graphics/SVG/1.1/DTD/svg11.dtd" >
<svg xmlns="http://www.w3.org/2000/svg">
<metadata>
Created by FontForge 20120731 at Mon Dec 15 12:11:07 2014
 By Ads
</metadata>
<defs>
<font id="iconfont" horiz-adv-x="1024" >
  <font-face 
    font-family="iconfont"
    font-weight="500"
    font-stretch="normal"
    units-per-em="1024"
    panose-1="2 0 6 3 0 0 0 0 0 0"
    ascent="812"
    descent="-212"
    x-height="792"
    bbox="34 -161 973 792"
    underline-thickness="50"
    underline-position="-100"
    unicode-range="U+0078-E61B"
  />
<missing-glyph horiz-adv-x="374" 
d="M34 0v682h272v-682h-272zM68 34h204v614h-204v-614z" />
    <glyph glyph-name=".notdef" horiz-adv-x="374" 
d="M34 0v682h272v-682h-272zM68 34h204v614h-204v-614z" />
    <glyph glyph-name=".null" horiz-adv-x="0" 
 />
    <glyph glyph-name="nonmarkingreturn" horiz-adv-x="341" 
 />
    <glyph glyph-name="x" unicode="x" horiz-adv-x="1001" 
d="M281 543q-27 -1 -53 -1h-83q-18 0 -36.5 -6t-32.5 -18.5t-23 -32t-9 -45.5v-76h912v41q0 16 -0.5 30t-0.5 18q0 13 -5 29t-17 29.5t-31.5 22.5t-49.5 9h-133v-97h-438v97zM955 310v-52q0 -23 0.5 -52t0.5 -58t-10.5 -47.5t-26 -30t-33 -16t-31.5 -4.5q-14 -1 -29.5 -0.5
t-29.5 0.5h-32l-45 128h-439l-44 -128h-29h-34q-20 0 -45 1q-25 0 -41 9.5t-25.5 23t-13.5 29.5t-4 30v167h911zM163 247q-12 0 -21 -8.5t-9 -21.5t9 -21.5t21 -8.5q13 0 22 8.5t9 21.5t-9 21.5t-22 8.5zM316 123q-8 -26 -14 -48q-5 -19 -10.5 -37t-7.5 -25t-3 -15t1 -14.5
t9.5 -10.5t21.5 -4h37h67h81h80h64h36q23 0 34 12t2 38q-5 13 -9.5 30.5t-9.5 34.5q-5 19 -11 39h-368zM336 498v228q0 11 2.5 23t10 21.5t20.5 15.5t34 6h188q31 0 51.5 -14.5t20.5 -52.5v-227h-327z" />
    <glyph glyph-name="uniE600" unicode="&#xe600;" 
d="M858 360q-25 39 -73 40h-3l-167 1q17 48 17 99q0 34 -7 66h-1q-6 28 -30 46.5t-54 18.5q-36 0 -61.5 -24.5t-25.5 -59.5v-8q-2 -67 -50 -114.5t-116 -52.5v-1h-99q-2 1 -4 1q-12 0 -21 -8.5t-9 -20.5v-346q0 -12 9 -20.5t21 -8.5h5h110h5h4h415q25 0 47 13q21 13 32 34
q3 4 4 9l64 275q2 4 1 9q3 28 -13 52zM214 314h60v-288h-60v288zM811 306l-62 -264q-4 -8 -11 -13q-5 -3 -11 -4q-2 1 -4 1h-390l1 295q59 14 103.5 54.5t63.5 96.5q5 14 8 26q2 11 3 22.5t1 17.5v6v2q0 11 8 19t20 8t20 -8t8 -19v-1q5 -22 5 -45q0 -14 -1 -25t-2 -16l-1 -5
h-1q-7 -36 -25 -69q-3 -7 -3 -13q0 -12 8.5 -20.5t21.5 -8.5h211v0q17 1 26 -13q7 -11 3 -24v0z" />
    <glyph glyph-name="uniE601" unicode="&#xe601;" 
d="M512 653q-96 0 -177.5 -47t-128.5 -128.5t-47 -177.5t47 -177.5t128.5 -128.5t177.5 -47t177.5 47t128.5 128.5t47 177.5t-47 177.5t-128.5 128.5t-177.5 47zM658 103q-22 24 -68.5 72.5t-70.5 73.5q-45 -45 -149 -150q-12 13 -31 32.5t-23 24.5q92 92 144 143
q-120 116 -149 145q38 36 56 52q82 -85 143 -145q12 13 149 150q14 -17 49 -55q-22 -22 -70 -69.5t-73 -72.5q65 -65 148 -147q-8 -8 -55 -54z" />
    <glyph glyph-name="uniE602" unicode="&#xe602;" 
d="M512 653q-96 0 -177.5 -47t-128.5 -128.5t-47 -177.5t47 -177.5t128.5 -128.5t177.5 -47t177.5 47t128.5 128.5t47 177.5t-47 177.5t-128.5 128.5t-177.5 47zM496 178l-46 -46l-159 159l52 52l107 -107l231 232l52 -52z" />
    <glyph glyph-name="uniE603" unicode="&#xe603;" 
d="M512 653q-96 0 -177.5 -47t-128.5 -128.5t-47 -177.5t47 -177.5t128.5 -128.5t177.5 -47t177.5 47t128.5 128.5t47 177.5t-47 177.5t-128.5 128.5t-177.5 47zM707 215h-262v306h74v-231h188v-75z" />
    <glyph glyph-name="uniE604" unicode="&#xe604;" 
d="M527 102q-91 0 -154.5 64t-63.5 154q0 91 64.5 155t155.5 64q90 -1 154 -65.5t63 -154.5q-1 -91 -64.5 -154t-154.5 -63zM527 124q82 1 140 58.5t57 138.5q-1 82 -59 139t-140 56q-80 0 -137 -58t-57 -138q0 -81 57.5 -138.5t138.5 -57.5zM807 553q-7 -7 -25.5 -25
t-27.5 -28l-19 20q35 35 52 53zM514 592v75h27v-75h-27zM514 -31v75h27v-75h-27zM300 500l-53 53q15 14 20 20q17 -18 53 -53l-1 -1l-1 -1l-1 -1l-1 -1l-1 -1l-1 -1l-1 -1l-1 -1l-1 -1l-1 -1l-1 -1l-1 -1l-1 -1l-1 -1l-1 -1l-1 -1l-1 -1l-1 -1zM787 54l-52 53q16 17 19 19
q18 -17 53 -52zM325 107q-8 -9 -53 -53q-15 15 -19 20q5 6 16 16.5t20 19.5l16 16q2 -1 7 -6l8 -8zM251 311h-74v27h74v-27zM879 311h-75v27h75v-27z" />
    <glyph glyph-name="uniE605" unicode="&#xe605;" 
d="M525 117q23 81 85 109q89 40 179 8q72 -26 93 -96q1 -1 4 -21h-361zM706 465q39 0 66.5 -27.5t28 -66.5t-27 -66.5t-66.5 -27.5t-66.5 27t-27.5 66t27 67t66 28zM457 452v-31h-292v31h292zM164 330v31h293v-31h-293zM164 233v32h235v-32h-235zM164 142v32h190v-32h-190z
M233 8h62v-15h-62v15zM437 8h61v-15h-61v15zM437 607h61v-15h-61v15zM135 607h61v-15h-61v15zM334 607h62v-15h-62v15zM233 607h62v-15h-62v15zM334 8h62v-15h-62v15zM135 8h61v-15h-61v15zM55 432h15v-62h-15v62zM55 534h15v-61h-15v61zM55 329h15v-61h-15v61zM55 125h15
v-62h-15v62zM55 227h15v-61h-15v61zM835 607h61v-15h-61v15zM835 8h61v-15h-61v15zM539 8h62v-15h-62v15zM744 8h61v-15h-61v15zM744 607h61v-15h-61v15zM539 607h62v-15h-62v15zM641 8h62v-15h-62v15zM641 607h62v-15h-62v15zM954 534h15v-61h-15v61zM954 432h15v-62h-15
v62zM954 329h15v-61h-15v61zM954 227h15v-61h-15v61zM954 125h15v-62h-15v62zM102 592q-24 0 -32 -23l-15 7q5 13 17 22t27 9h5v-15h-2zM922 592q24 0 32 -23l15 7q-5 13 -17 22t-27 9h-5v-15h2zM922 8q24 0 32 23l15 -7q-5 -13 -17 -22t-27 -9h-5v15h2zM105 8q-25 0 -33 23
l-14 -7q4 -13 16 -22t27 -9h5v15h-1z" />
    <glyph glyph-name="uniE606" unicode="&#xe606;" 
d="M233 8h62v-15h-62v15zM437 8h61v-15h-61v15zM437 607h61v-15h-61v15zM135 607h61v-15h-61v15zM334 607h62v-15h-62v15zM233 607h62v-15h-62v15zM334 8h62v-15h-62v15zM135 8h61v-15h-61v15zM55 432h15v-62h-15v62zM55 534h15v-61h-15v61zM55 329h15v-61h-15v61zM55 125
h15v-62h-15v62zM55 227h15v-61h-15v61zM835 607h61v-15h-61v15zM835 8h61v-15h-61v15zM539 8h62v-15h-62v15zM744 8h61v-15h-61v15zM744 607h61v-15h-61v15zM539 607h62v-15h-62v15zM641 8h62v-15h-62v15zM641 607h62v-15h-62v15zM954 534h15v-61h-15v61zM954 432h15v-62
h-15v62zM954 329h15v-61h-15v61zM954 227h15v-61h-15v61zM954 125h15v-62h-15v62zM102 592h2v15h-5q-15 0 -27 -9t-17 -22l15 -7q8 23 32 23zM954 569l15 7q-5 13 -17 22t-27 9h-5v-15h2q24 0 32 -23zM922 8h-2v-15h5q15 0 27 9t17 22l-15 7q-8 -23 -32 -23zM72 31l-14 -7
q4 -13 16 -22t27 -9h5v15h-1q-25 0 -33 23zM873 261v-41h-483v41h483zM463 311v42h342v-42h-342zM321 308q0 35 -25 60t-60.5 25t-60.5 -25t-25 -60t24 -61l-3 -21l24 -18l8 10q3 -3 9 -6t22 -4t31 10l14 -11l18 15l-2 24q26 25 26 62zM266 339l2 7l2 -7h6l-5 -4l2 -6l-5 4
l-5 -4l2 6l-6 4h7zM253 312l-6 4l-5 -4l2 6l-5 4h6l2 6l2 -6h7l-5 -4zM233 354l3 12l4 -12l12 1l-9 -8l3 -11l-9 7l-10 -7l3 11l-10 7h13zM221 322l2 6l2 -6h6l-5 -4l2 -6l-5 4l-5 -4l2 6l-6 4h7zM201 339l2 7l2 -7h7l-5 -4l2 -6l-6 4l-5 -4l2 6l-5 4h6zM279 262h-85l-9 8v6
h24l6 19l40 -1l8 -18h23l1 -7z" />
    <glyph glyph-name="uniE607" unicode="&#xe607;" 
d="M504.5 247q102.5 0 175 71.5t72.5 173t-72.5 173t-175 71.5t-175 -71.5t-72.5 -173t72.5 -173t175 -71.5zM511.5 224q-71.5 0 -148.5 -27.5t-140 -73t-104 -110t-41 -132.5v-42h866v42q0 68 -40.5 132.5t-104 110t-140 73t-148 27.5z" />
    <glyph glyph-name="uniE608" unicode="&#xe608;" 
d="M512 -141q-10 0 -16 8l-251 329q0 1 -2 3t-3 4l-1 1q-1 1 -2 3q-62 88 -62 196q0 140 98.5 238.5t238.5 98.5t239 -98.5t99 -238.5q0 -108 -63 -196q-1 -1 -2 -3l-1 -1q-3 -4 -5 -7l-250 -329q-7 -8 -17 -8zM278 221l234 -308l235 308v1q2 2 4 5l1 1l1 1q56 78 56 174
q0 123 -87 209.5t-210 86.5t-209.5 -86.5t-86.5 -209.5q0 -96 56 -174v-1q1 0 1 -1l3 -3q1 -2 2 -3zM512.5 272q-54.5 0 -93.5 38.5t-39 93t39 93.5t93.5 39t93 -39t38.5 -93.5t-38.5 -93t-93 -38.5zM512.5 495q-37.5 0 -64.5 -27t-27 -64.5t27 -64t64.5 -26.5t64 26.5
t26.5 64t-26.5 64.5t-64 27z" />
    <glyph glyph-name="uniE609" unicode="&#xe609;" 
d="M949 -97l-270 272q80 96 80 222q0 95 -46.5 175t-126.5 126.5t-174 46.5t-174.5 -46.5t-127 -126.5t-46.5 -174.5t46.5 -174.5t127 -126.5t174.5 -46.5q130 0 228 85l269 -271q9 -9 20.5 -9t19.5 8.5t8 20t-8 19.5zM412 105q-121 0 -206.5 85.5t-85.5 206.5t85.5 206.5
t206.5 85.5t206.5 -85.5t85.5 -206.5t-85.5 -206.5t-206.5 -85.5z" />
    <glyph glyph-name="uniE60A" unicode="&#xe60a;" 
d="M888 590h-752q-30 0 -51 -21t-21 -51v-460q0 -30 21 -51t51 -21h752q30 0 51 21t21 51v460q0 30 -21 51t-51 21zM934 63q0 -21 -15 -36t-36 -15h-742q-21 0 -36 15t-15 36v450q0 21 15 36t36 15h742q21 0 36 -15t15 -36v-450zM358 118h-157q-12 0 -15.5 4.5t0.5 16.5
q26 90 103 130q20 11 31 -6l6 -6q4 -4 4 -5q23 -27 31 -27t31 27q18 21 25.5 22t31.5 -14q63 -40 87 -122q3 -11 0 -15.5t-15 -4.5h-163zM362 283q-38 -1 -63 24t-25 63q0 36 24.5 61.5t60.5 26.5q37 1 63.5 -25.5t26.5 -63.5q0 -35 -25.5 -60.5t-61.5 -25.5zM824 316h-42
h-111h-1q-7 0 -11.5 -4.5t-4.5 -11.5t4.5 -11.5t11.5 -4.5h1h111h42q7 0 11.5 4.5t4.5 11.5t-4.5 11.5t-11.5 4.5zM824 398h-42h-176h-1q-7 0 -12 -4.5t-5 -11.5t5 -11.5t12 -4.5h1h176h42q7 0 11.5 4.5t4.5 11.5t-4.5 11.5t-11.5 4.5z" />
    <glyph glyph-name="uniE60B" unicode="&#xe60b;" 
d="M888 590h-752q-30 0 -51 -21t-21 -51v-460q0 -30 21 -51t51 -21h752q30 0 51 21t21 51v460q0 30 -21 51t-51 21zM141 564h742q21 0 36 -15t15 -36v-55h-844v55q0 21 15 36t36 15zM883 12h-742q-21 0 -36 15t-15 36v237h844v-237q0 -21 -15 -36t-36 -15zM849 123h-403
h-246h-1q-9 0 -15.5 -6.5t-6.5 -16t6.5 -16t15.5 -6.5h1h246h403q9 0 16 6.5t7 16t-7 16t-16 6.5zM447 232h-1h-246h-1q-9 0 -15.5 -6.5t-6.5 -15.5t6.5 -16t15.5 -7h1h246h1q9 0 15.5 7t6.5 16t-6.5 15.5t-15.5 6.5z" />
    <glyph glyph-name="uniE60C" unicode="&#xe60c;" 
d="M512 592q-121 0 -206.5 -85.5t-85.5 -206.5t85.5 -206.5t206.5 -85.5t206.5 85.5t85.5 206.5t-85.5 206.5t-206.5 85.5zM510 27q-112 0 -191 81t-79 194q0 112 80.5 192t192.5 79q113 -1 192 -81t79 -193t-80.5 -192.5t-193.5 -79.5zM529 464q0 9 -9.5 9t-9.5 -9v-161
h-121h23h-23q-10 0 -10 -9.5t10 -9.5h23h-23h131q9 0 9 10v0v140v30z" />
    <glyph glyph-name="uniE60D" unicode="&#xe60d;" 
d="M382 513h479q28 0 47.5 19.5t19.5 47t-19.5 47.5t-47.5 20h-479q-28 0 -47.5 -20t-19.5 -47.5t19.5 -47t47.5 -19.5zM187 647h-8q-28 0 -47.5 -20t-19.5 -47.5t19.5 -47t47.5 -19.5h8q28 0 47.5 19.5t19.5 47t-19.5 47.5t-47.5 20zM861 379h-479q-28 0 -47.5 -20
t-19.5 -47.5t19.5 -47t47.5 -19.5h479q28 0 47.5 19.5t19.5 47t-19.5 47.5t-47.5 20zM187 379h-8q-28 0 -47.5 -20t-19.5 -47.5t19.5 -47t47.5 -19.5h8q28 0 47.5 19.5t19.5 47t-19.5 47.5t-47.5 20zM861 111h-479q-28 0 -47.5 -20t-19.5 -47.5t19.5 -47t47.5 -19.5h479
q28 0 47.5 19.5t19.5 47t-19.5 47.5t-47.5 20zM187 111h-8q-28 0 -47.5 -20t-19.5 -47.5t19.5 -47t47.5 -19.5h8q28 0 47.5 19.5t19.5 47t-19.5 47.5t-47.5 20z" />
    <glyph glyph-name="uniE60E" unicode="&#xe60e;" 
d="M514 436q170 -8 279 -124q18 -20 6 -32q-13 -14 -33 7q-122 124 -294 108q-115 -11 -208 -99q-2 -2 -5 -5.5t-5 -4.5q-15 -16 -28 -2q-12 13 3 28q34 37 78 64q90 56 207 60zM512 256q108 -4 172 -79q15 -18 2 -30q-14 -13 -30 5q-50 55 -120 64q-88 12 -160 -53l-6 -5
l-4 -5q-15 -15 -28 -1q-11 12 2 27q54 60 129 73q26 4 43 4zM512 40zM470 40.5q0 17.5 12.5 29.5t29.5 12t29.5 -12t12.5 -29.5t-12.5 -30t-29.5 -12.5t-29.5 12.5t-12.5 30zM902 430q-70 78 -171.5 125t-218.5 47q-119 0 -218.5 -44.5t-173.5 -125.5q-4 -5 -4 -12
q0 -8 5.5 -13.5t12.5 -5.5q9 0 16 8q71 73 164 115.5t198 41.5q101 -1 194.5 -44t167.5 -116q8 -9 16 -9t13 5.5t5 12.5q0 6 -3 11q0 1 -3 4z" />
    <glyph glyph-name="uniE60F" unicode="&#xe60f;" 
d="M512 607q-127 0 -217 -90t-90 -217t90 -217t217 -90t217 90t90 217t-90 217t-217 90zM512 34q-110 0 -188 78t-78 188t78 188t188 78t188 -78t78 -188t-78 -188t-188 -78zM489 215v28q1 19 14.5 38t29.5 31.5t29.5 28t13.5 29.5q0 20 -19 33t-43 13t-46.5 -18.5
t-22.5 -50.5h-41q0 51 31.5 78.5t75.5 27.5q52 1 80.5 -22.5t28.5 -68.5q0 -21 -13.5 -38.5t-30 -27.5t-30 -27t-13.5 -37v-17h-44zM490 147v42h44v-42h-44z" />
    <glyph glyph-name="uniE610" unicode="&#xe610;" 
d="M205 300q0 -127 90 -217t217 -90t217 90t90 217t-90 217t-217 90t-217 -90t-90 -217zM246 300q0 110 78 188t188 78t188 -78t78 -188t-78 -188t-188 -78t-188 78t-78 188zM538 275q66 66 48 82q-14 12 -18.5 20.5t-1 22.5t19.5 34q39 49 79 -8q15 -21 -10 -78.5
t-74 -108.5q-56 -59 -114.5 -82.5t-80.5 -6.5q-11 8 -17.5 15t-12.5 17.5t-0.5 23t21.5 25.5q13 10 24 14.5t17 6.5t15 -4t11 -8l12 -12q17 -17 82 47z" />
    <glyph glyph-name="uniE611" unicode="&#xe611;" 
d="M512 607q-127 0 -217 -90t-90 -217t90 -217t217 -90t217 90t90 217t-90 217t-217 90zM512 34q-110 0 -188 78t-78 188t78 188t188 78t188 -78t78 -188t-78 -188t-188 -78zM450 306l-13 11q54 59 97 59q11 0 15 -3.5t4 -10.5q0 -11 -19 -74q-32 -108 -32 -128q0 -10 6 -10
q12 0 50 37l11 -12q-39 -37 -58.5 -48.5t-33.5 -11.5q-11 0 -16 8t-5 17q0 34 45 183q3 8 3 12q0 7 -8 7q-10 0 -46 -36zM536 464q0 13 9.5 22t21.5 9q8 0 14 -7t6 -16q0 -13 -9 -22.5t-21 -9.5q-9 0 -15 6.5t-6 17.5z" />
    <glyph glyph-name="uniE612" unicode="&#xe612;" 
d="M756 553h-203v8q0 17 -12 29t-29 12t-29 -12t-12 -29v-8h-203q-14 0 -24.5 -10.5t-10.5 -25t10.5 -25t24.5 -10.5h488q14 0 24.5 10.5t10.5 25t-10.5 25t-24.5 10.5zM272 444l20 -450h440l20 450h-480zM415 86q0 -16 -10.5 -26.5t-25.5 -10.5t-25.5 10.5t-10.5 26.5v261
q0 16 10.5 26.5t25.5 10.5t25.5 -10.5t10.5 -26.5v-261zM548 86q0 -16 -10.5 -26.5t-25.5 -10.5t-25.5 10.5t-10.5 26.5v261q0 16 10.5 26.5t25.5 10.5t25.5 -10.5t10.5 -26.5v-261zM681 86q0 -16 -10.5 -26.5t-25.5 -10.5t-25.5 10.5t-10.5 26.5v261q0 16 10.5 26.5
t25.5 10.5t25.5 -10.5t10.5 -26.5v-261z" />
    <glyph glyph-name="uniE613" unicode="&#xe613;" 
d="M225 147h37v-58h-39q-23 0 -39.5 16.5t-16.5 40.5v443q0 23 16.5 39.5t39.5 16.5h462q24 0 40.5 -16.5t16.5 -39.5v-39h-58v37h-459v-440zM857 473v-462q0 -23 -16.5 -39.5t-39.5 -16.5h-462q-23 0 -40 16.5t-17 39.5v462q0 23 17 39.5t40 16.5h462q23 0 39.5 -16.5
t16.5 -39.5zM799 471h-459v-458h459v458zM396 336h120q5 0 5 5v49q0 5 -5 5h-120q-5 0 -5 -5v-49q0 -5 5 -5zM396 212h272q5 0 5 5v49v1q0 5 -5 5h-272q-5 0 -5 -5v-50q0 -5 5 -5zM396 89h348q5 0 5 4v49v1q0 5 -5 5h-348q-5 0 -5 -5v-50q0 -4 5 -4z" />
    <glyph glyph-name="uniE614" unicode="&#xe614;" 
d="M283 60h50v-12h-50v12zM450 60h50v-12h-50v12zM450 551h50v-13h-50v13zM203 551h50v-13h-50v13zM366 551h50v-13h-50v13zM283 551h50v-13h-50v13zM366 60h50v-12h-50v12zM203 60h50v-12h-50v12zM137 407h13v-50h-13v50zM137 491h13v-50h-13v50zM137 323h13v-50h-13v50z
M137 156h13v-51h-13v51zM137 240h13v-51h-13v51zM776 551h50v-13h-50v13zM776 60h50v-12h-50v12zM534 60h50v-12h-50v12zM701 60h51v-12h-51v12zM701 551h51v-13h-51v13zM534 551h50v-13h-50v13zM618 60h50v-12h-50v12zM618 551h50v-13h-50v13zM873 491h13v-50h-13v50z
M873 407h13v-50h-13v50zM873 323h13v-50h-13v50zM873 240h13v-51h-13v51zM873 156h13v-51h-13v51zM176 539q-20 0 -27 -19l-12 5q4 12 14 19t22 7h4v-12h-1zM847 539q20 0 27 -19l12 5q-4 12 -14 19t-22 7h-4v-12h1zM847 60q20 0 27 19l12 -5q-4 -12 -14 -19t-22 -7h-4v12h1
zM178 60q-20 0 -27 19l-12 -5q4 -12 14 -19t22 -7h4v12h-1zM178 60zM515 165q5 1 14 2q16 1 35 3q13 1 24 2q13 1 26 1q18 0 29 -1q4 0 7 -1q5 -1 8 -2q0 -1 1 -1l1 -1q1 -1 1 -2v-1q1 -2 0 -5t-4 -7q-3 -5 -10 -11q-5 -5 -11 -10q-9 -7 -23 -17q-7 -4 -11 -7q-2 -1 -3 -2
l-1 -1q-1 -1 -1 -2v-1q1 -1 4 -2q2 -1 6 -2t11 -2q9 -1 19 -1h9h7h13q-1 -1 -3 -1q-4 -1 -10 -1l-16 -2h-9h-11q-7 1 -12 2l-6 2q-4 1 -6 4q-1 0 -2 1v2v1q-1 3 1 5l2 2l1 1q1 1 3 2q9 6 11 8q13 8 23 16q7 5 11 9q7 6 10 10q3 3 3 6l1 1v1h-1v1v0q0 1 -1 1q-1 1 -6 2
q-3 1 -7 1q-10 1 -28 1h-26q-11 0 -24 -1q-14 -1 -35 -2zM659 92l65 19l-46 46zM850 253l-29 29q-9 9 -18 0l-14 -14l46 -46l14 13q9 10 1 18zM283.5 287.5q-4.5 1.5 -10 1.5t-8.5 1l6 7q3 3 8 7q4 5 6 7q0 1 3 2.5t4 3.5q2 3 0 8q-5 0 -9.5 -0.5t-8.5 -1.5q-6 -3 -7 -3
q-4 -1 -9 -4q-6 -2 -8 -3l-8 -1q-10 -1 -5 -6q2 -2 6 -2.5t7 0.5l8 2q4 2 6 1q-12 -17 -21 -24q0 -1 -1 -2l-2 -1l-1 -2q-1 -1 -1 -2t-0.5 -2t-0.5 -2q2 -5 7 -5t10 3l12 6q5 3 8 3q6 -1 4 -10q-7 -20 -9 -26q-2 0 -7 4.5t-6 4.5q-3 0 -3.5 -3.5t1.5 -5.5l4 -8q2 -4 6 -7.5
t8 -3.5q1 1 2 1l1 1q1 0 2 1l1 1v2l1 2l1 3q9 27 10 34q2 10 1 13q-3 4 -7.5 5.5zM259 351q1 -1 6.5 -2.5t6.5 -3.5q0 -3 -4.5 -6.5t-4.5 -5.5q0 -3 3 -3.5t5 0.5l8 4q4 3 8 7t4 7q-1 4 -3.5 5.5t-5.5 2t-7 0t-6 -0.5q-1 0 -3.5 1t-4 1t-3.5 -1t-1 -2t2 -3zM401.5 263.5
q-2.5 1.5 -4.5 3t-7 3.5l-39 23q-12 7 -12 11q-1 0 -1 1l2 2q0 1 1 1t2 0.5t2 1.5h2q0 1 1 1q7 4 14 5q3 1 4 1.5t1.5 1t0 2.5t-1.5 3l-1 2h-9q-5 0 -10 3v1q2 1 5 3q10 8 10 16q1 6 -10 6q-2 0 -5 -2l2 -5q1 -10 -17 -11q1 4 0.5 13t-2.5 12q-3 3 -7 4.5t-7 -1.5
q-1 -2 1.5 -6.5t2.5 -5.5q3 -12 4 -32v-4v-4q0 -2 -1 -4q-2 -4 -12.5 -8t-11.5 -4q-1 2 -2 3q-3 2 -4 -3q-3 -5 0 -7q2 -2 3.5 -2.5t3 -0.5t3.5 0.5t3.5 1t3.5 1.5t3 1q1 1 2.5 1.5t2.5 1t2 0.5q4 -1 2 -13v-26v-6q0 -1 -1.5 -4t-2.5 -6v-4q0 -3 0.5 -5.5t0.5 -3.5
q5 -6 13 2q16 18 20 32q2 4 2.5 6t1.5 4t2 3t2.5 1t3.5 -1t4.5 -3t3.5 -2q3 -2 6.5 -3.5t9 -3.5t6.5 -3q1 0 2.5 -0.5t2.5 -0.5t2.5 -0.5t3.5 -0.5l1 1q0 2 -0.5 3.5t-3 3zM331.5 319.5q0.5 3.5 1.5 5.5q4 4 8.5 1.5t5.5 -7.5q-1 0 -4.5 -1.5t-6 -2t-4 0t-1 4zM351 275
l-2 -3q-1 -2 -7 -8q-1 -1 -2.5 -3.5t-2.5 -3.5t-3 -2t-3 -1h-1q-1 0 -1 2v2v3q0 10 2 24v3q0 2 0.5 3.5t2 1.5t2.5 -1t2.5 -2t2.5 -2l6 -3q3 -2 4 -4.5t0 -5.5zM585 255q-5 2 -11 4l-9 3q-15 7 -42 28q-2 0 -6.5 3.5t-7.5 5.5t-5 5q1 0 4.5 2t5.5 2q2 1 10 1h11q1 0 3 0.5
t3.5 0.5t2.5 1t2 3q0 1 -0.5 4t-2.5 5q-2 1 -6.5 2t-6.5 1q-4 2 -9 8t-5 7q-1 0 -4 1l-2 2q-1 2 -0.5 9.5t0.5 8.5q-1 3 -3 5.5t-5 2.5t-4.5 -2.5t-2 -6.5t-0.5 -7v-7v-6q-1 -22 -4 -27q-3 -4 -12.5 -7t-15.5 -1q-1 0 -4 1t-3 2v-10q5 -13 28 -3q3 -13 -1.5 -27.5
t-15.5 -21.5q-3 -1 -7 -2t-8 1l-2 2q-2 2 -3 2q-3 3 -5 -2v-4q0 -12 17 -10q14 2 22 9q6 5 9 13t5 19t4 15q7 -3 16 -10q9 -8 15 -14q7 -5 16 -11.5t18 -8.5l3 -1q3 -1 4 -1t3.5 -0.5t4.5 -0.5h3q2 0 3.5 1t2 1t1.5 1h1q1 1 1 1.5t0.5 1t-0.5 1.5q-1 3 -6 5zM504.5 324
q0.5 2 0.5 3.5t0.5 3.5t0.5 3l3 5q10 -12 10 -16q-1 -3 -6.5 -4.5t-6.5 0.5q-1 0 -1.5 1.5t0 3.5zM786 264q-1 4 -2 6q0 1 -1 2.5t-2 1.5q-2 1 -2.5 -1t0.5 -4q0 -4 1 -10l-10 -10q-1 1 -2 3q-2 2 -3 2q-16 12 -30 28q0 1 -3 3l-1 2q-2 1 -3 2t-2 3t-1 4q1 1 7 3q4 2 11.5 3
t10.5 2q0 5 -2.5 7t-7.5 1t-9 -3q-5 -1 -9.5 -2.5t-7.5 -0.5q-3 2 -5.5 6.5t-0.5 7t11 0.5q1 2 5 3.5t4 3.5q3 4 -2 6q-6 1 -13 -1q0 4 3.5 7t7.5 4q0 1 5.5 6t5.5 9q-1 3 -4 4.5t-7 1.5h-7q-7 -1 -19.5 -5t-14.5 -4q-3 -1 -9 -1h-8q-4 -2 -7 -4t0 -6t16 -2q5 1 19 7t23 6
q0 -2 -1 -3l-3 -3q-2 -2 -2 -3q-1 -1 -3 -2t-2 -2q-2 -1 -8.5 -6.5t-9.5 -8t-8.5 -6t-10.5 -4.5q-1 5 -3.5 7.5t-6.5 2.5q-7 2 -8 -1q0 -1 0.5 -2.5t2.5 -3.5l2 -2q2 -3 2 -12q0 -5 -0.5 -11.5t-0.5 -10.5q-1 -4 -2 -12t-1 -11q0 -1 -1 -5t-1.5 -6.5t-0.5 -6.5t1 -6
q1 -4 3.5 -5t5 -0.5t5 2.5t4.5 4t8 7t8.5 8.5t5.5 9t3 11.5q-2 -1 -4 -2.5t-3 -2.5t-3.5 -4t-3.5 -4q-8 -10 -18 -14v6q-1 4 -1 7t0.5 7t2 7t4 4.5t9 3t9.5 2.5q1 1 4 3l6 3q2 1 5.5 2t5.5 1q3 -1 6.5 -4.5t8 -9.5t5.5 -7q3 -4 7 -8t7 -6.5t9 -8t7 -6.5l1 -1l-80 -81l46 -46
l102 102l-44 43q0 2 -1 4zM707 300q-1 -2 -8 -4q-2 -1 -6.5 -3t-8.5 -3t-7 -2q-4 0 -5.5 3t-0.5 7t2 6q2 4 9 7t13 4q4 0 9.5 -6t2.5 -9z" />
    <glyph glyph-name="uniE615" unicode="&#xe615;" 
d="M512 498q-85 0 -145.5 -60.5t-60.5 -145.5t60.5 -145.5t145.5 -60.5t145.5 60.5t60.5 145.5t-60.5 145.5t-145.5 60.5zM512 110q-75 0 -128.5 53.5t-53.5 128.5t53.5 128.5t128.5 53.5t128.5 -53.5t53.5 -128.5t-53.5 -128.5t-128.5 -53.5zM868 530h-162q-5 0 -22 27
q-8 12 -12.5 18.5t-13 13t-17.5 6.5h-258q-9 0 -17.5 -6.5t-13 -13t-12.5 -18.5q-17 -27 -22 -27h-162q-18 0 -31 -13t-13 -31v-437q0 -18 13 -31t31 -13h712q18 0 31 13t13 31v437q0 18 -13 31t-31 13zM868 29h-712q-8 0 -14 6t-6 14v437q0 8 6 14t14 6h162q9 0 17 6.5
t12.5 12.5t12.5 19q3 5 5.5 8.5t6 8.5t6.5 7.5t5 2.5h258q6 0 23 -27q8 -13 12.5 -19t12.5 -12.5t17 -6.5h162q8 0 14 -6t6 -14v-437q0 -8 -6 -14t-14 -6zM253 454h-16q-13 0 -22.5 -9.5t-9.5 -23t9.5 -23t22.5 -9.5h16q14 0 23.5 9.5t9.5 23t-9.5 23t-23.5 9.5z" />
    <glyph glyph-name="uniE616" unicode="&#xe616;" 
d="M787 512h-675v-524h675v524zM762 488v-436l-161 138l-124 -74l-177 202l-163 -163v333h625zM137 12v108l162 162l173 -198l126 76l164 -141v-6zM224 525h26v63h637v-476h-87v-24h112v524h-688v-87zM612 262q31 0 53 22t22 53.5t-22 53t-53 21.5t-53 -21.5t-22 -53
t22 -53.5t53 -22zM612 388q21 0 35.5 -15t14.5 -35.5t-14.5 -35t-35.5 -14.5t-35.5 14.5t-14.5 35t14.5 35.5t35.5 15z" />
    <glyph glyph-name="uniE617" unicode="&#xe617;" 
d="M434 331h-127q-21 0 -35.5 14.5t-14.5 34.5v127q0 21 14.5 35.5t35.5 14.5h127q20 0 34.5 -14.5t14.5 -35.5v-127q0 -20 -14.5 -34.5t-34.5 -14.5v0zM307 539q-13 0 -22.5 -9.5t-9.5 -22.5v-127q0 -12 9.5 -21.5t22.5 -9.5h127q13 0 22 9.5t9 21.5v127q0 13 -9 22.5
t-22 9.5h-127v0zM759 527h-242q-9 0 -9 9t9 9h242q9 0 9 -9q0 -4 -2.5 -6.5t-6.5 -2.5v0zM759 439h-242q-9 0 -9 9t9 9h242q9 0 9 -9t-9 -9v0zM759 351h-242q-9 0 -9 9.5t9 9.5h242q9 0 9 -10q0 -3 -2.5 -6t-6.5 -3v0zM434 42h-127q-21 0 -35.5 14.5t-14.5 34.5v127
q0 21 14.5 35.5t35.5 14.5h127q20 0 34.5 -14.5t14.5 -35.5v-127q0 -20 -14.5 -34.5t-34.5 -14.5v0zM307 250q-13 0 -22.5 -9.5t-9.5 -22.5v-127q0 -13 9.5 -22t22.5 -9h127q13 0 22 9t9 22v127q0 13 -9 22.5t-22 9.5h-127v0zM759 237h-242q-9 0 -9 9.5t9 9.5h242
q9 0 9 -9.5t-9 -9.5v0zM759 150h-242q-9 0 -9 9t9 9h242q9 0 9 -9t-9 -9v0zM759 62h-242q-9 0 -9 9t9 9h242q9 0 9 -9t-9 -9v0zM759 62z" />
    <glyph glyph-name="uniE618" unicode="&#xe618;" 
d="M808 456l-42 -2q-23 98 -87 147q-36 28 -70 41h-1q-40 15 -84 17h-11h-1q-120 0 -202 -90q-36 -38 -52 -115l-42 2h-1q-19 0 -33 -13.5t-14 -32.5v-77q0 -19 14 -32.5t33 -13.5h33q20 0 27.5 9t7.5 27v97q0 5 1 9l1 8q15 76 47 112q36 38 83.5 59t96.5 21h10h1
q38 -2 75 -15q30 -11 63 -36q57 -45 78 -143q2 -7 2 -15v-97q0 -2 1 -5l-47 -12q16 38 16 80q0 87 -62 148q-59 59 -139 59t-138 -59q-62 -61 -62 -148.5t62 -148.5q4 -4 11 -12t11 -11.5t11 -9t14 -8.5q-11 -3 -21 -7q-53 -19 -96 -53t-73 -81q-31 -47 -44 -101l32 -8
q25 99 106 164q39 31 86 47q48 18 100.5 18t100.5 -18q47 -16 86 -47q81 -64 105 -164l33 8q-13 55 -44 102q-30 46 -73 80q-43 35 -96 53q-10 4 -20 7q8 3 14.5 8t10.5 9t11.5 12t11.5 12q16 15 27 34l80 19q8 -3 20 -3h33q19 0 33 13.5t14 32.5v77q0 19 -14 32.5t-34 13.5
zM771 422v1v1l38 2q7 0 12 -5t5 -11v-77q0 -7 -5 -11.5t-12 -4.5h-33h-4v6v98zM215 426l38 -2v-2v-99q0 -3 -1 -6h-4h-33q-7 0 -12 4.5t-5 11.5v77q0 6 5 11t12 5zM510 209q-72 0 -119 51t-47 125.5t47 126t119.5 51.5t119.5 -51.5t47 -125.5q0 -49 -21 -90l-92 -22
q-10 9 -24.5 9t-25 -9t-10.5 -22t10.5 -22.5t24.5 -9.5q12 0 21.5 7t12.5 18l56 14q-48 -50 -119 -50z" />
    <glyph glyph-name="uniE619" unicode="&#xe619;" 
d="M512 494q-66 0 -113 -46.5t-47 -112.5t47 -113t113 -47t113 47t47 113t-47 112.5t-113 46.5zM512 215q-49 0 -84 35t-35 84.5t35 84.5t84 35t84.5 -35t35.5 -84.5t-35 -84.5t-85 -35zM513 526q16 0 27 11.5t11 27t-11 26.5t-27 11t-27 -11t-11 -26.5t11 -27t27 -11.5z
M513 567q3 0 3 -2.5t-2.5 -2.5t-2.5 2.5t2 2.5zM790 487q-23 54 -65 96t-96 65q-56 23 -117 23t-117 -23q-54 -23 -96 -65t-65 -96q-23 -56 -23 -117t23 -117q23 -55 65 -96.5t96 -64.5q13 -5 27 -10l-46 -113h-14q-8 0 -14 -6t-6 -14t6 -14t14 -6h277v0h29q8 0 14 6t6 14
t-6 14t-14 6h-15l-45 115q28 10 55 25q68 40 109 108q41 71 41 153q0 61 -23 117zM610 -31h-191l42 104q25 -4 51 -4q28 0 56 5zM737 238q-35 -60 -94 -94q-61 -35 -131 -35q-108 0 -184.5 76.5t-76.5 184.5t76.5 184.5t184.5 76.5t184.5 -76.5t76.5 -184.5q0 -71 -36 -132z
M737 238z" />
    <glyph glyph-name="uniE61A" unicode="&#xe61a;" 
d="M512 561q-70 0 -119.5 -49.5t-49.5 -119.5t49.5 -119.5t119.5 -49.5t119.5 49.5t49.5 119.5t-49.5 119.5t-119.5 49.5zM512 243q-62 0 -105.5 43.5t-43.5 105.5t43.5 105.5t105.5 43.5t105.5 -43.5t43.5 -105.5t-43.5 -105.5t-105.5 -43.5zM766 524h-13q-11 0 -19 -7.5
t-8 -18.5t8 -19t19 -8h13q11 0 19 8t8 19t-8 18.5t-19 7.5zM840 275v276q0 15 -11 25.5t-26 10.5h-132q-4 0 -18 22q-6 10 -10 15.5t-11 10.5t-14 5h-212q-10 0 -17.5 -8t-17.5 -23q-14 -22 -18 -22h-132q-15 0 -26 -10.5t-11 -25.5v-276q-63 -22 -98 -51t-35 -61
q0 -52 85.5 -93t221.5 -58v-52l114 79l-114 80v-63q-121 12 -193.5 43.5t-72.5 74.5q0 49 92 87v-68q0 -15 11 -25.5t26 -10.5h582q15 0 26 10.5t11 25.5v69q95 -38 95 -88q0 -52 -102 -85.5t-263 -39.5v-44q112 5 204.5 27t145.5 56.5t53 74.5q0 32 -35 61t-98 51zM820 193
q0 -6 -5 -11t-12 -5h-582q-7 0 -12 5t-5 11v358q0 7 5 12t12 5h132q7 0 14 5t11 10l10 15q13 22 18 22h212q5 0 18 -22l10 -15q4 -5 11 -10t14 -5h132q7 0 12 -5t5 -12v-358z" />
    <glyph glyph-name="uniE61B" unicode="&#xe61b;" 
d="M704 331h-127q-21 0 -35.5 15t-14.5 35v127q0 21 14.5 35.5t35.5 14.5h127q20 0 35 -14.5t15 -35.5v-127q0 -20 -15 -35t-35 -15v0zM577 539q-13 0 -22 -9t-9 -22v-127q0 -13 9 -22t22 -9h127q13 0 22 9t9 22v127q0 13 -9 22t-22 9h-127v0zM704 42h-127q-21 0 -35.5 14.5
t-14.5 35.5v127q0 20 15 34.5t35 14.5h127q20 0 35 -14.5t15 -34.5v-127q0 -21 -15 -35.5t-35 -14.5v0zM577 250q-13 0 -22 -9t-9 -22v-127q0 -13 9 -22t22 -9h127q13 0 22 9t9 22v127q0 13 -9 22t-22 9h-127v0zM438 331h-127q-21 0 -35.5 15t-14.5 35v127q0 21 14.5 35.5
t35.5 14.5h127q20 0 34.5 -14.5t14.5 -35.5v-127q0 -20 -14.5 -35t-34.5 -15v0zM311 539q-13 0 -22.5 -9t-9.5 -22v-127q0 -13 9.5 -22t22.5 -9h127q13 0 22 9t9 22v127q0 13 -9 22t-22 9h-127v0zM438 42h-127q-21 0 -35.5 14.5t-14.5 35.5v127q0 20 14.5 34.5t35.5 14.5
h127q20 0 34.5 -14.5t14.5 -34.5v-127q0 -21 -14.5 -35.5t-34.5 -14.5v0zM311 250q-13 0 -22.5 -9t-9.5 -22v-127q0 -13 9.5 -22t22.5 -9h127q13 0 22 9t9 22v127q0 13 -9 22t-22 9h-127v0zM763 63z" />
  </font>
</defs>
</svg>
